<svg id="Calque_1" data-name="Calque 1" xmlns="http://www.w3.org/2000/svg" viewBox="0 0 1044.44 541.24"><defs><style>.cls-1{fill:#818080;}</style></defs><path class="cls-1" d="M773.82,0C659.62,0,562,70.73,522.22,170.78,482.49,70.73,384.82,0,270.62,0,121.16,0,0,121.16,0,270.62S121.16,541.24,270.62,541.24c114.2,0,211.87-70.73,251.6-170.78C562,470.51,659.62,541.24,773.82,541.24c149.46,0,270.62-121.16,270.62-270.62S923.28,0,773.82,0ZM270.62,496.73c-124.9,0-226.11-101.24-226.11-226.11S145.72,44.51,270.62,44.51s226.1,101.23,226.1,226.11S395.49,496.73,270.62,496.73Zm503.2,0c-124.87,0-226.1-101.24-226.1-226.11S649,44.51,773.82,44.51,999.93,145.74,999.93,270.62,898.72,496.73,773.82,496.73Z"/></svg>