<svg id="Calque_1" data-name="Calque 1" xmlns="http://www.w3.org/2000/svg" viewBox="0 0 888.08 434.62"><defs><style>.cls-1{fill:#0080bb;}</style></defs><path class="cls-1" d="M670.77,0C565.46,0,505.3,79.49,443.39,152.68,380.51,76.3,326.81,0,217.31,0,97.29,0,0,97.29,0,217.31S97.29,434.62,217.31,434.62c79.18,0,132.63-44.71,180.37-98.18,15.77-17.65,30.9-36.25,46.14-54.51,63.46,76.05,117.39,152.69,227,152.69,120,0,217.31-97.29,217.31-217.31S790.79,0,670.77,0ZM215.15,388.36a171.05,171.05,0,0,1,0-342.1c94.47,0,189.33,76.58,189.33,171.05S309.62,388.36,215.15,388.36ZM677.56,388c-94.24,0-188.88-76.4-188.88-170.64S583.32,46.67,677.56,46.67a170.64,170.64,0,1,1,0,341.28Z" transform="translate(0)"/></svg>