<svg id="Calque_1" data-name="Calque 1" xmlns="http://www.w3.org/2000/svg" xmlns:xlink="http://www.w3.org/1999/xlink" viewBox="0 0 1280 906.87"><defs><style>.cls-1{fill:url(#linear-gradient);}.cls-2{fill:#fff;}.cls-3{opacity:0.51;}.cls-4{fill:#ff5f00;}</style><linearGradient id="linear-gradient" x1="93.28" y1="1000.15" x2="1186.72" y2="-93.28" gradientUnits="userSpaceOnUse"><stop offset="0.45" stop-color="#d4d4d3"/><stop offset="0.74" stop-color="#e7e7e7"/><stop offset="0.94" stop-color="#f8f8f8"/></linearGradient></defs><rect class="cls-1" width="1280" height="906.87"/><path class="cls-2" d="M582.83,514.41a26.91,26.91,0,0,1-6.34,8.71,31.57,31.57,0,0,1-9.25,5.8,28.71,28.71,0,0,1-11.07,2.18,28.21,28.21,0,0,1-20.49-8.35,26.93,26.93,0,0,1-8.53-19.95,25.52,25.52,0,0,1,8.71-19.58,29.11,29.11,0,0,1,20.31-8,28.27,28.27,0,0,1,20.5,8.35,26.94,26.94,0,0,1,8.52,19.95A25.38,25.38,0,0,1,582.83,514.41Z" transform="translate(0 7.98)"/><path class="cls-2" d="M685.18,505.66a26.94,26.94,0,0,1,8.52-20,28.27,28.27,0,0,1,20.5-8.35,29.16,29.16,0,0,1,20.31,8,25.56,25.56,0,0,1,8.71,19.59,26.93,26.93,0,0,1-8.53,19.95,28.21,28.21,0,0,1-20.49,8.35,28.71,28.71,0,0,1-11.07-2.18,31.44,31.44,0,0,1-9.25-5.8,27.09,27.09,0,0,1-6.35-8.71A25.52,25.52,0,0,1,685.18,505.66Z" transform="translate(0 7.98)"/><path class="cls-2" d="M703,432.08V418.29a86.38,86.38,0,0,1,1.27-15.6,58.32,58.32,0,0,1,4-13.05,56.45,56.45,0,0,1,7.26-12,114.66,114.66,0,0,1,11.42-12.33l16.33-15.6A67.06,67.06,0,0,0,755,336q4.9-7.62,4.9-18.5,0-14.15-8.89-23.76t-25.21-9.61a35.71,35.71,0,0,0-15,3.08,36.67,36.67,0,0,0-11.61,8.34,35.73,35.73,0,0,0-7.43,12.15,47.39,47.39,0,0,0-2.91,14.15l-44.61-4a91,91,0,0,1,9.25-31,74.63,74.63,0,0,1,18.31-23,79.17,79.17,0,0,1,25.76-14.33,97.05,97.05,0,0,1,31.2-4.89,95.24,95.24,0,0,1,29.56,4.53,74.18,74.18,0,0,1,24.67,13.42,63.22,63.22,0,0,1,16.86,21.95Q806,297.49,806,314.55a72.9,72.9,0,0,1-2.54,20.31,59.82,59.82,0,0,1-7.25,16,86.66,86.66,0,0,1-11.43,14q-6.72,6.7-15,14-7.26,6.18-11.79,10.89a49.31,49.31,0,0,0-7.26,9.43,33.43,33.43,0,0,0-3.81,10.15,70.42,70.42,0,0,0-1.09,13.43v9.43Z" transform="translate(0 7.98)"/><path class="cls-2" d="M534.89,432.08v-9.43a70.51,70.51,0,0,0-1.08-13.43A33.43,33.43,0,0,0,530,399.07a49.31,49.31,0,0,0-7.26-9.43q-4.53-4.71-11.79-10.89-8.34-7.25-15.05-14a86.66,86.66,0,0,1-11.43-14,59.82,59.82,0,0,1-7.25-16,72.9,72.9,0,0,1-2.54-20.31q0-17.06,6.16-30.11a63.36,63.36,0,0,1,16.87-21.95,74.18,74.18,0,0,1,24.67-13.42,95.24,95.24,0,0,1,29.56-4.53,97.05,97.05,0,0,1,31.2,4.89,79.12,79.12,0,0,1,25.75,14.33,74.52,74.52,0,0,1,18.32,23,91,91,0,0,1,9.25,31l-44.62,4a47.07,47.07,0,0,0-2.9-14.15,35.89,35.89,0,0,0-7.43-12.15,36.67,36.67,0,0,0-11.61-8.34,35.72,35.72,0,0,0-15.06-3.08q-16.32,0-25.21,9.61t-8.88,23.76q0,10.88,4.89,18.5a67.41,67.41,0,0,0,11.79,13.78l16.33,15.6a114.66,114.66,0,0,1,11.42,12.33,56.87,56.87,0,0,1,7.26,12,58.84,58.84,0,0,1,4,13.05,86.38,86.38,0,0,1,1.27,15.6v13.79Z" transform="translate(0 7.98)"/><ellipse class="cls-3" cx="552.34" cy="514.83" rx="74.43" ry="75.76"/><ellipse class="cls-3" cx="714.2" cy="513.28" rx="75.82" ry="74.21"/><path class="cls-4" d="M712.33,420.9a84,84,0,0,0-78.08,53,84,84,0,1,0,0,62,84,84,0,1,0,78.08-115ZM556.17,575.05a70.17,70.17,0,1,1,70.17-70.17A70.16,70.16,0,0,1,556.17,575.05Zm156.16,0a70.17,70.17,0,1,1,70.17-70.17A70.16,70.16,0,0,1,712.33,575.05Z" transform="translate(0 7.98)"/></svg>