<svg id="Calque_1" data-name="Calque 1" xmlns="http://www.w3.org/2000/svg" viewBox="0 0 50.71 68.95"><defs><style>.cls-1{fill:#ff7f30;}</style></defs><path class="cls-1" d="M37,69h.25a19.19,19.19,0,0,0,2.13-.21h1.12l.71-.16.24-.06.94-.24.42-.13h.27l.29-.09,1.13-.38.77-.26.36-.12.58-.19.59-.22.4-.15.17-.06.37-.14h.14l.32-.12a9.17,9.17,0,0,0,.9-.41,6.18,6.18,0,0,0,.53-.36h0l.31-.28a1.31,1.31,0,0,0,.28-.45v-.18h0a.74.74,0,0,0-.08-.29.82.82,0,0,0-.35-.29l-.19-.07h0l-.41-.21-.45-.2h-.17l-.24-.12-.25-.11-.34-.16h0l-.21-.11h0a3.5,3.5,0,0,0-.54-.29l-.62-.31-.63-.28L45.14,62,45,61.93c-.14-.08-.29-.15-.43-.24l-.62-.4a.53.53,0,0,0-.39,0h0c-.36-.32-.75-.63-1.08-.9s-.45-.38-.65-.56v-.09a1.75,1.75,0,0,1-.24-.23l-.19-.23-.07-.09-.24-.31-.15-.14-.1-.12v-.06l-.17-.19-.17-.18-.27-.3-.33-.38c-.14-.19-.3-.38-.45-.56l-.15-.21-.42-.56-.47-.63L38,55.11,38,55c-.15-.21-.31-.41-.45-.57S37.17,54,37,53.7l-.1-.18c-.13-.22-.26-.43-.4-.63l-.34-.44c-.09-.1-.17-.21-.25-.31-.2-.26-.4-.52-.6-.76a1,1,0,0,1-.22-.32.86.86,0,0,1-.13-.2l-.1-.16c-.08-.12-.14-.24-.21-.36s-.15-.26-.23-.38q-.28-.43-.6-.84l-.25-.3-.24-.29a5.42,5.42,0,0,1-.5-.78c-.17-.3-.32-.62-.43-.86a3.61,3.61,0,0,1-.17-.46c0-.14-.07-.19-.11-.28L32.06,46l-.2-.53v-.22l-.1-.24-.12-.25-.09-.16c0-.1-.09-.19-.13-.29V44c-.12-.29-.21-.59-.29-.84a4.68,4.68,0,0,1-.2-.84h0c-.06-.31-.14-.61-.22-.89s-.16-.63-.22-.94c-.1-.49-.17-1-.24-1.47a1,1,0,0,0-.07-.44l-.12-.76v-.12a.72.72,0,0,0-.07-.38,1.32,1.32,0,0,1-.08-.44,5.14,5.14,0,0,0-.07-.78V32a7.15,7.15,0,0,1,.12-1.6,4.92,4.92,0,0,1,.2-1l.09-.45a12.6,12.6,0,0,1,.36-1.5c.07-.24.13-.48.19-.71s.17-.62.26-.93.14-.47.23-.71.19-.5.28-.7.22-.51.32-.76l.12-.35a1.26,1.26,0,0,1,.13-.37c.15-.4.31-.79.47-1.17l.12-.29c.1-.23.21-.45.31-.67h0c.06-.11.11-.23.18-.35l.2-.34v-.15c.12-.2.26-.43.4-.64l.4-.52.05-.07h0c.23-.3.47-.6.69-.91s.38-.56.56-.84l.07-.1c.09-.15.18-.3.28-.44l.34-.53a10.45,10.45,0,0,1,.61-.87l.3-.37.5-.63v.08h0c.1-.12.2-.25.31-.37v-.05l.25-.29c.14-.16.27-.33.39-.49l.21-.27c.06-.07.12-.13.17-.2h0l.19-.24.17-.21.3-.35h0c.15-.19.31-.39.48-.58a6.5,6.5,0,0,1,.52-.53l.51-.48.39-.34.2-.19L42.33,9l.25-.24a1.68,1.68,0,0,1,.29-.24l.53-.42L43.54,8c.2-.14.39-.3.58-.45h.06c.19-.15.34-.28.48-.41s.6-.55.94-.82a10.66,10.66,0,0,1,1.11-1.4l.35-.15.31-.17c.25-.14.48-.25.7-.35s.65-.25,1-.37.85-.26,1.22-.36A.5.5,0,0,0,50.71,3V2.85a.48.48,0,0,0-.25-.29.31.31,0,0,0-.06-.13.53.53,0,0,0-.3-.23l-.79-.27L49,1.79l-.34-.13a7,7,0,0,0-.9-.24l-.52-.11c-.46-.12-.93-.21-1.41-.3h-.07A2.65,2.65,0,0,1,45,.87c-.22-.06-.45-.15-.66-.22h-.09A5.26,5.26,0,0,0,43.62.4a6.33,6.33,0,0,0-1-.16h-.84L41,.15h-.82L39.3.09h-.07c-.25,0-.5-.06-.74-.07H37.14a.34.34,0,0,0-.2,0H34.63a5.45,5.45,0,0,0-1.07.07C32.81.17,32,.3,31.41.41l-.65.1-.41.07L29.51.46H29.3c-.32,0-.65.11-1,.19L27.71.8,27.3.91,26.76,1l-.51.12-.2.06-.31.08-.22.05H25.3l-.91.22-1,.27c-.26.08-.6.18-.94.3s-.68.26-1,.39l-.24.21h-.07a4.55,4.55,0,0,0-.51.21l-.3.14-.19.1-.78.38-.28.17-.22.12-.4.25-.18.12L18,4.4v.11l-.3.17-.32.18L17,5.11l-.6.34-.27.15-.84.48a14.23,14.23,0,0,0-1.56,1c-.23.17-.47.33-.67.46l-.31.2L12.33,8l-.19.13-.53.4L10.94,9l-.11.07c-.2.15-.4.3-.59.46a4.46,4.46,0,0,0-.57.58l-.14.15c-.16.19-.33.37-.5.55a5.09,5.09,0,0,0-.6.63l-.33.37-.19.21-.11.12-.09,0c-.06.07-.12.15-.19.22l-.29.31-.11.09L6.93,13l-.22.24c-.16.17-.3.35-.44.53v.06l-.1.11c-.16.2-.33.4-.48.61s-.17.25-.25.38a1.87,1.87,0,0,0-.17.31h0c-.15.28-.28.58-.4.84s-.11.26-.17.39L4.49,17l-.11.24-.09.2-.19.42L4,18.05l-.27.31c0,.09-.09.18-.13.26l-.14.3-.07.15-.18.37c-.12.23-.24.45-.35.68l-.13.34c-.09.17-.17.35-.24.52s-.09.19-.13.28c-.16.35-.3.71-.42,1.06s-.15.42-.24.63-.06.18-.1.27l-.06.17h0a2,2,0,0,0-.13.39.38.38,0,0,0,0,.15.35.35,0,0,1-.07.26v.06l-.09.34a8.37,8.37,0,0,1-.18,1l-.09.7v.31c-.13.8-.33,1.62-.5,2.33v.14A6.54,6.54,0,0,0,.28,30c-.07.43-.11.77-.13,1.08s0,.71,0,1v1.35c0,.48-.08,1-.1,1.47v.94a6.09,6.09,0,0,0,.1.73.71.71,0,0,1,0,.29c0,.1.07.48.1.72L.26,38a4.17,4.17,0,0,0,.1.6A1.82,1.82,0,0,0,.44,39a2.26,2.26,0,0,1,0,.52V40A8.08,8.08,0,0,0,.61,41.1a2.46,2.46,0,0,0,.1.47h0A1.57,1.57,0,0,0,.84,42c.13.36.27.7.39,1s.15.39.23.63.15.5.21.76a3.55,3.55,0,0,0,.09.47l.09.52a7.83,7.83,0,0,0,.22.93,6,6,0,0,0,.37,1,3.85,3.85,0,0,0,.43.83l.5.74c0,.06.07.11.1.16l.15.25q.13.2.3.39l.36.5c.09.13.18.26.29.39a.34.34,0,0,0,0,.2.15.15,0,0,0,0,.13v.14a1.45,1.45,0,0,0,.14.46,2.31,2.31,0,0,0,.26.55l.14.22h0c.08.1.16.21.25.31l.07.08.21.23h.07l.27.28.33.32c.19.2.37.41.52.59a3.22,3.22,0,0,1,.29.41l.15.2c.08.12.17.24.25.37s.16.23.23.35.11.16.16.24c.29.43.61.85.89,1.21l.52.63a4.34,4.34,0,0,0,.53.52h.06c.17.16.35.32.53.46l.27.23L11,59c.37.3.74.63,1.07.94l.07.06a4.19,4.19,0,0,0,.45.39l.08.07.45.36c.45.38.86.69,1.27,1l.58.39.69.47c.35.26.73.53,1.15.82l.18.13.44.3c.22.14.43.27.64.38.53.3.94.53,1.33.72s.5.23.76.33l.55.22h.09l.76.33.23.1c.32.14.62.31.92.47h0a18.66,18.66,0,0,0,2.75,1.3l1.3.43h.1c.49.16,1,.3,1.5.43h.14a.53.53,0,0,0,.59-.26l.42.09c.36.07.75.12,1.19.17l1.12.09h1a19.49,19.49,0,0,1,2.16.08h1.11Z" transform="translate(0 0)"/></svg>