<svg id="Calque_1" data-name="Calque 1" xmlns="http://www.w3.org/2000/svg" viewBox="0 0 682.37 353.61"><defs><style>.cls-1{fill:#1d1d1b;}</style></defs><path d="M570.35,184.56a6.5,6.5,0,0,1,8.88-2.38l3.48,2a80.9,80.9,0,0,0,3.3-10.77s.76-7.63-6.62-7.63c-5.75,0-6.79,7.63-6.79,7.63a68.08,68.08,0,0,1-131.17,0s-1.62-9.06-8.84-7.3c-5.89,1.44-4.57,7.3-4.57,7.3a80.55,80.55,0,0,0,3.65,11.66l5-2.89a6.5,6.5,0,1,1,6.49,11.26l-5.73,3.31a81.17,81.17,0,0,0,6.87,9.76l4.69-3.4a6.5,6.5,0,1,1,7.63,10.52L453.46,216a82,82,0,0,0,7.43,5.82l2.42-2.89a6.5,6.5,0,0,1,10,8.33l-1,1.19a82.39,82.39,0,0,0,8.42,3.42l.63-1.55a6.5,6.5,0,0,1,12.08,4.79c2.46.42,5,.72,7.5.91v-1.48a6.5,6.5,0,1,1,13,0v1.42a81,81,0,0,0,8.47-1.17,6.49,6.49,0,0,1,12.19-4.47l.4,1a82,82,0,0,0,8.09-3.51l-.44-.53a6.5,6.5,0,0,1,10-8.33l1.72,2.05a81.56,81.56,0,0,0,7.1-5.73l-2.16-1.57a6.5,6.5,0,1,1,7.64-10.52l3.48,2.53a80.58,80.58,0,0,0,6.66-9.71l-4.32-2.49A6.5,6.5,0,0,1,570.35,184.56Z"/><path d="M407,199.31a6.5,6.5,0,1,0,6.49,11.26l24-13.82a80.78,80.78,0,0,1-5.78-11.68Z"/><path d="M445.57,184.56a6.5,6.5,0,0,0-8.88-2.38l-5,2.89a80.78,80.78,0,0,0,5.78,11.68l5.73-3.31A6.51,6.51,0,0,0,445.57,184.56Z"/><path d="M444.32,206.51l-23.06,16.74a6.5,6.5,0,1,0,7.63,10.52L453.46,216A82.34,82.34,0,0,1,444.32,206.51Z"/><path d="M458.09,204.55a6.51,6.51,0,0,0-9.08-1.44l-4.69,3.4a82.34,82.34,0,0,0,9.14,9.44l3.18-2.32A6.5,6.5,0,0,0,458.09,204.55Z"/><path d="M441.33,245.19a6.49,6.49,0,0,0,.82,9.16,6.5,6.5,0,0,0,9.15-.82l21-25.13a81.24,81.24,0,0,1-11.4-6.63Z"/><path d="M472.46,218.06a6.48,6.48,0,0,0-9.15.82l-2.42,2.89a81.24,81.24,0,0,0,11.4,6.63l1-1.19A6.48,6.48,0,0,0,472.46,218.06Z"/><path d="M468.54,262.08a6.5,6.5,0,0,0,12.06,4.85l12.8-31.81a.14.14,0,0,1,0-.06,80.23,80.23,0,0,1-12.71-3.24Z"/><path d="M489.79,226.66a6.5,6.5,0,0,0-8.45,3.61l-.63,1.55a80.23,80.23,0,0,0,12.71,3.24A6.51,6.51,0,0,0,489.79,226.66Z"/><path d="M608.93,199.31l-26.22-15.13a79.94,79.94,0,0,1-5.66,11.75l25.39,14.64a6.5,6.5,0,0,0,6.49-11.26Z"/><path d="M579.23,182.18a6.5,6.5,0,1,0-6.5,11.26l4.32,2.49a79.94,79.94,0,0,0,5.66-11.75Z"/><path d="M561.43,215.2,587,233.77a6.5,6.5,0,1,0,7.64-10.52l-24.27-17.61A81.84,81.84,0,0,1,561.43,215.2Z"/><path d="M557.83,204.55a6.5,6.5,0,0,0,1.44,9.08l2.16,1.57a81.84,81.84,0,0,0,9-9.56l-3.48-2.53A6.51,6.51,0,0,0,557.83,204.55Z"/><path d="M564.61,253.53a6.5,6.5,0,0,0,5,2.33,6.43,6.43,0,0,0,4.16-1.51,6.5,6.5,0,0,0,.82-9.16l-20.26-24.26a81.22,81.22,0,0,1-11.26,6.81Z"/><path d="M543.46,218.06a6.49,6.49,0,0,0-.83,9.15l.44.53a81.22,81.22,0,0,0,11.26-6.81l-1.72-2.05A6.48,6.48,0,0,0,543.46,218.06Z"/><path d="M522.52,235.12l12.8,31.81a6.5,6.5,0,0,0,12.06-4.85L535,231.25a80.17,80.17,0,0,1-12.59,3.49C522.43,234.87,522.47,235,522.52,235.12Z"/><path d="M526.13,226.66a6.5,6.5,0,0,0-3.74,8.08A80.17,80.17,0,0,0,535,231.25l-.4-1A6.5,6.5,0,0,0,526.13,226.66Z"/><path d="M500.92,236v32.81a6.5,6.5,0,1,0,13,0V235.91c-2.28.19-4.58.31-6.91.31C505,236.22,502.94,236.12,500.92,236Z"/><path d="M507.42,228a6.5,6.5,0,0,0-6.5,6.5V236c2,.15,4,.25,6.09.25,2.33,0,4.63-.12,6.91-.31v-1.42A6.5,6.5,0,0,0,507.42,228Z"/><path class="cls-1" d="M505.57,0A176.89,176.89,0,0,0,341.19,111.58a176.8,176.8,0,1,0,0,130.46A176.82,176.82,0,1,0,505.57,0ZM176.81,324.53A147.73,147.73,0,1,1,324.53,176.81,147.71,147.71,0,0,1,176.81,324.53Zm328.76,0A147.73,147.73,0,1,1,653.29,176.81,147.72,147.72,0,0,1,505.57,324.53Z"/></svg>