<svg id="Calque_1" data-name="Calque 1" xmlns="http://www.w3.org/2000/svg" viewBox="0 0 227.48 310.73"><defs><style>.cls-1{fill:#ededed;}</style></defs><path class="cls-1" d="M222.08,231.66c-.08.23-.15.46-.23.69C221.93,232.12,222,231.89,222.08,231.66Z"/><path class="cls-1" d="M225.63,217.42c-.13.75-.28,1.49-.43,2.23C225.36,218.91,225.5,218.17,225.63,217.42Z"/><path class="cls-1" d="M.31,205.31c0-.65-.09-1.31-.13-2C.22,204,.26,204.66.31,205.31Z"/><path class="cls-1" d="M221.19,234.34l-.15.42Z"/><path class="cls-1" d="M227.19,189.14c0,.29,0,.58.05.87C227.23,189.72,227.21,189.43,227.19,189.14Z"/><path class="cls-1" d="M225.05,220.42c-.13.62-.27,1.23-.41,1.85C224.78,221.65,224.92,221,225.05,220.42Z"/><path class="cls-1" d="M224.4,223.33c-.13.5-.25,1-.38,1.52C224.15,224.34,224.27,223.83,224.4,223.33Z"/><path class="cls-1" d="M223.68,226.16l-.33,1.23Z"/><path class="cls-1" d="M220.24,237l-.06.15Z"/><path class="cls-1" d="M222.91,228.94c-.09.32-.19.64-.28.95C222.72,229.58,222.82,229.26,222.91,228.94Z"/><path class="cls-1" d="M225.71,217a113.85,113.85,0,0,0,1.77-20c0-1.74-.06-3.44-.14-5.13q.12,2.55.12,5.13A114.73,114.73,0,0,1,225.71,217Z"/><path class="cls-1" d="M1.07,212.53c0-.1,0-.2-.05-.3C1,212.33,1.05,212.43,1.07,212.53Z"/><path class="cls-1" d="M2,175.62A110.09,110.09,0,0,0,0,197q0,2.86.15,5.7C.05,200.79,0,198.9,0,197A114,114,0,0,1,2,175.62Z"/><path class="cls-1" d="M.79,210.32c0-.31-.08-.62-.11-.92C.71,209.7.75,210,.79,210.32Z"/><path class="cls-1" d="M.53,207.87c-.05-.47-.09-.94-.13-1.41C.44,206.93.48,207.4.53,207.87Z"/><path class="cls-1" d="M227.34,191.87c0-.62-.06-1.24-.1-1.86,0-.29,0-.58-.05-.87-2.75-37.2-24.92-63.2-51.1-86.58-.94-.84-1.9-1.66-2.85-2.49-8.39-7.36-17.12-14.49-25.68-21.65C176.73,54.08,206,32.42,219.63,0H196.27C181,33,149.74,58.45,113.7,58.45S46.49,33,31.17,0H8.42C22.5,32,52.07,55.09,79.92,78.64,70.79,86.15,61.67,93.41,53,100.82c-24.22,20.76-44.69,42.73-51,74.8A114,114,0,0,0,0,197c0,1.9,0,3.79.14,5.67l0,.67c0,.66.08,1.32.13,2l.09,1.15c0,.47.08.94.13,1.41s.1,1,.15,1.53c0,.3.07.61.11.92.07.64.15,1.28.23,1.91,0,.1,0,.2.05.3a113.74,113.74,0,0,0,93.6,96.55v.05a114.1,114.1,0,0,0,19.06,1.6c2.44,0,4.86-.09,7.26-.24v0a113.75,113.75,0,0,0,99.19-73.34l.06-.15c.27-.73.54-1.46.8-2.2l.15-.42c.23-.66.45-1.33.66-2,.08-.23.15-.46.23-.69.19-.58.37-1.18.55-1.77.09-.31.19-.63.28-.95.15-.51.3-1,.44-1.55l.33-1.23c.12-.43.23-.87.34-1.31s.25-1,.38-1.52l.24-1.06c.14-.62.28-1.23.41-1.85l.15-.77c.15-.74.3-1.48.43-2.23,0-.14.05-.28.08-.41a114.73,114.73,0,0,0,1.75-20Q227.46,194.42,227.34,191.87Zm-113.6,99a92.65,92.65,0,0,1-92.65-92.65c0-51.16,41.48-102.55,92.65-102.55s92.65,51.39,92.65,102.55A92.65,92.65,0,0,1,113.74,290.91Z"/></svg>