<svg id="Calque_1" data-name="Calque 1" xmlns="http://www.w3.org/2000/svg" xmlns:xlink="http://www.w3.org/1999/xlink" viewBox="0 0 1280 720"><defs><style>.cls-1{fill:url(#linear-gradient);}.cls-2{fill:#fff;}.cls-3{opacity:0.51;}.cls-4{fill:#ff5f00;}</style><linearGradient id="linear-gradient" x1="140" y1="860" x2="1140" y2="-140" gradientUnits="userSpaceOnUse"><stop offset="0.45" stop-color="#d4d4d3"/><stop offset="0.74" stop-color="#e7e7e7"/><stop offset="0.94" stop-color="#f8f8f8"/></linearGradient></defs><rect class="cls-1" width="1280" height="720"/><path class="cls-2" d="M703,346.62V332.84a86.3,86.3,0,0,1,1.27-15.6,58.56,58.56,0,0,1,4-13.06,56.14,56.14,0,0,1,7.26-12,114.66,114.66,0,0,1,11.42-12.33l16.33-15.6A67.11,67.11,0,0,0,755,250.49q4.9-7.61,4.9-18.5,0-14.15-8.89-23.76t-25.21-9.61a35.71,35.71,0,0,0-15,3.08,36.54,36.54,0,0,0-11.61,8.35,35.73,35.73,0,0,0-7.43,12.15,47.33,47.33,0,0,0-2.91,14.15l-44.61-4a91.11,91.11,0,0,1,9.25-31,74.59,74.59,0,0,1,18.31-23A78.81,78.81,0,0,1,697.51,164a96.78,96.78,0,0,1,31.2-4.9,95,95,0,0,1,29.56,4.54A73.83,73.83,0,0,1,782.94,177,63.27,63.27,0,0,1,799.8,199Q806,212,806,229.09a73,73,0,0,1-2.54,20.32,60,60,0,0,1-7.25,16,86.6,86.6,0,0,1-11.43,14q-6.72,6.72-15,14-7.26,6.17-11.79,10.88a49.63,49.63,0,0,0-7.26,9.43,33.49,33.49,0,0,0-3.81,10.16,70.38,70.38,0,0,0-1.09,13.42v9.43ZM695.7,397a27,27,0,0,1,8.52-20,28.26,28.26,0,0,1,20.5-8.34,29.16,29.16,0,0,1,20.31,8,25.56,25.56,0,0,1,8.71,19.59,27,27,0,0,1-8.53,19.95,28.2,28.2,0,0,1-20.49,8.34,28.63,28.63,0,0,1-11.07-2.17,31.46,31.46,0,0,1-9.25-5.81,26.79,26.79,0,0,1-6.35-8.7A25.56,25.56,0,0,1,695.7,397Z"/><path class="cls-2" d="M531.35,346.62v-9.43a70.38,70.38,0,0,0-1.09-13.42,33.49,33.49,0,0,0-3.81-10.16,49.22,49.22,0,0,0-7.26-9.43q-4.53-4.71-11.79-10.88-8.34-7.26-15-14a86.6,86.6,0,0,1-11.43-14,60,60,0,0,1-7.25-16,73,73,0,0,1-2.54-20.32q0-17,6.17-30.11A63.27,63.27,0,0,1,494.16,177a73.83,73.83,0,0,1,24.67-13.42,95,95,0,0,1,29.57-4.54,96.76,96.76,0,0,1,31.19,4.9,78.81,78.81,0,0,1,25.76,14.33,74.62,74.62,0,0,1,18.32,23,91.34,91.34,0,0,1,9.25,31l-44.62,4a47.63,47.63,0,0,0-2.9-14.15A35.91,35.91,0,0,0,578,210.05a36.54,36.54,0,0,0-11.61-8.35,35.71,35.71,0,0,0-15.05-3.08q-16.32,0-25.21,9.61T517.2,232q0,10.89,4.9,18.5a66.85,66.85,0,0,0,11.79,13.79l16.32,15.6a114.84,114.84,0,0,1,11.43,12.33,56.5,56.5,0,0,1,7.25,12,58.56,58.56,0,0,1,4,13.06,86.3,86.3,0,0,1,1.27,15.6v13.78Zm47.7,61.31a26.79,26.79,0,0,1-6.35,8.7,31.46,31.46,0,0,1-9.25,5.81,28.62,28.62,0,0,1-11.06,2.17,28.24,28.24,0,0,1-20.5-8.34,26.94,26.94,0,0,1-8.52-19.95,25.55,25.55,0,0,1,8.7-19.59,29.19,29.19,0,0,1,20.32-8,28.24,28.24,0,0,1,20.49,8.34,26.94,26.94,0,0,1,8.53,20A25.57,25.57,0,0,1,579.05,407.93Z"/><ellipse class="cls-3" cx="549.55" cy="414.17" rx="77.22" ry="68.54"/><ellipse class="cls-3" cx="721.02" cy="414.17" rx="77.22" ry="68.54"/><path class="cls-4" d="M721.9,333.25c-39.92,0-62.73,30.13-86.19,57.87-23.84-28.95-44.19-57.87-85.7-57.87A82.37,82.37,0,1,0,550,498c30,0,50.27-16.95,68.37-37.21,6-6.69,11.71-13.74,17.49-20.67,24,28.83,44.5,57.88,86,57.88a82.37,82.37,0,0,0,0-164.74ZM549.07,482.72a67.1,67.1,0,0,1,0-134.2c37.06,0,74.27,30,74.27,67.1S586.13,482.72,549.07,482.72Zm175.53,0c-37.06,0-74.27-30-74.27-67.1s37.21-67.1,74.27-67.1a67.1,67.1,0,0,1,0,134.2Z"/></svg>