<svg xmlns="http://www.w3.org/2000/svg" xmlns:xlink="http://www.w3.org/1999/xlink" width="1080" zoomAndPan="magnify" viewBox="0 0 810 809.999993" height="1080" preserveAspectRatio="xMidYMid meet" version="1.0"><defs><clipPath id="102db17fa4"><path d="M 75 81 L 738 81 L 738 729 L 75 729 Z M 75 81 " clip-rule="nonzero"/></clipPath><clipPath id="d80370a9ea"><path d="M 328.210938 309.332031 L 571.210938 309.332031 L 571.210938 552.332031 L 328.210938 552.332031 Z M 328.210938 309.332031 " clip-rule="nonzero"/></clipPath><clipPath id="bfd190f115"><path d="M 366.460938 309.332031 L 532.960938 309.332031 C 543.105469 309.332031 552.835938 313.359375 560.007812 320.535156 C 567.183594 327.707031 571.210938 337.4375 571.210938 347.582031 L 571.210938 514.082031 C 571.210938 524.226562 567.183594 533.953125 560.007812 541.128906 C 552.835938 548.300781 543.105469 552.332031 532.960938 552.332031 L 366.460938 552.332031 C 356.316406 552.332031 346.589844 548.300781 339.414062 541.128906 C 332.242188 533.953125 328.210938 524.226562 328.210938 514.082031 L 328.210938 347.582031 C 328.210938 337.4375 332.242188 327.707031 339.414062 320.535156 C 346.589844 313.359375 356.316406 309.332031 366.460938 309.332031 Z M 366.460938 309.332031 " clip-rule="nonzero"/></clipPath></defs><g clip-path="url(#102db17fa4)"><path fill="#ffcdce" d="M 386.328125 81.527344 C 362.222656 81.238281 324.550781 83.867188 281.003906 98.726562 C 272.335938 101.683594 263.808594 105.035156 255.421875 108.703125 C 280.308594 98.785156 312.972656 88.933594 351.390625 85.242188 C 371.957031 82.464844 388.019531 82.339844 395.769531 82.523438 C 402.589844 82.699219 399.96875 82.824219 395.746094 82.910156 C 395.832031 82.90625 394.886719 82.933594 394.972656 82.933594 C 395.234375 82.9375 395.492188 82.933594 395.746094 82.933594 C 416.617188 83.140625 413.894531 82.6875 395.792969 81.8125 C 392.925781 81.679688 389.761719 81.570312 386.316406 81.53125 Z M 351.390625 85.242188 C 345.9375 85.976562 340.234375 86.855469 334.207031 88.015625 C 304.480469 93.738281 275.527344 103.746094 248.519531 117.566406 C 225.371094 129.410156 208.753906 141.4375 199.265625 148.824219 C 202.351562 146.585938 206.242188 143.808594 211.40625 140.242188 C 239.234375 121.890625 243.378906 121.867188 235.023438 126.941406 C 224.507812 133.328125 209.226562 142.863281 192.167969 157.214844 C 176.972656 170 166.066406 182.195312 168.511719 180.757812 C 171.015625 179.28125 185.011719 160.691406 235.570312 133.195312 C 268.363281 115.742188 297.835938 107.71875 318.128906 103.675781 C 338.527344 99.609375 365.019531 96.546875 394.992188 98.078125 C 421.105469 99.425781 463.445312 104.964844 511.113281 126.988281 C 508.667969 125.707031 527.53125 133.421875 551.714844 149.214844 C 577.824219 166.261719 602.871094 188.242188 624.042969 215.160156 C 641.492188 237.386719 652.050781 257.746094 656.125 266.4375 C 653.289062 261.148438 647.140625 250.667969 635.460938 233.941406 C 641.507812 241.484375 628.738281 223.761719 622.691406 216.21875 C 608.296875 198.277344 582.402344 170.617188 542.070312 146.632812 C 501.566406 122.546875 450.660156 104.847656 394.726562 103.425781 C 347.960938 102.230469 304.25 112.480469 266.394531 129.21875 C 291.769531 118.390625 319.902344 110.613281 349.15625 107.453125 C 372.058594 104.980469 388.285156 106.035156 389.5625 106.335938 C 390.839844 106.640625 377.050781 104.601562 341.117188 109.882812 C 301.570312 116.179688 298.773438 119.953125 313.292969 116.921875 C 329.800781 113.476562 358.585938 108.144531 394.398438 110.039062 C 407.296875 110.710938 419.296875 112.265625 430.351562 114.265625 C 425.835938 113.550781 421.230469 112.898438 416.46875 112.382812 C 411.523438 111.734375 403.835938 110.964844 394.367188 110.6875 C 368.484375 109.90625 330.664062 112.816406 287.820312 128.714844 C 244.839844 144.664062 203.820312 171.222656 171.828125 207.484375 C 131.523438 252.996094 114.253906 303.066406 106.917969 338.542969 C 115.15625 301.992188 133.925781 252.796875 173.492188 209.066406 C 207.25 171.597656 245.226562 150.382812 271.039062 138.226562 C 290.804688 130.113281 280.734375 133.851562 257.722656 145.625 C 232.777344 158.390625 201.679688 178.558594 174.050781 209.609375 C 151.164062 235.214844 136.546875 261.6875 127.585938 282.414062 C 119.0625 302.132812 116.546875 312.714844 120.257812 304.007812 C 112.480469 324.898438 107.753906 343.824219 104.886719 360.445312 C 104.386719 364.363281 103.996094 367.980469 103.761719 370.882812 C 102.035156 392.136719 103.972656 391.972656 104.226562 390.714844 C 105.957031 382.019531 105.3125 328.164062 145.105469 259.425781 C 129.328125 285.585938 120.980469 309.269531 118.234375 317.019531 C 116.683594 321.402344 115.863281 323.71875 115.183594 325.601562 C 113.890625 330.21875 112.578125 335.175781 111.3125 340.832031 C 107.609375 357.355469 106.480469 368.578125 105.683594 373.910156 C 103.253906 390.121094 105.78125 368.523438 108.105469 352.820312 C 109.089844 348.6875 109.714844 346.027344 111.996094 336.625 C 112.617188 334.066406 113.351562 331.28125 114.140625 328.402344 C 113.910156 328.941406 113.765625 329.183594 113.753906 328.925781 C 113.703125 327.84375 117.53125 312.707031 114.167969 327.664062 C 119.910156 306.949219 122.597656 301.460938 121.984375 303.902344 C 131.996094 276.789062 148.78125 243.542969 177.121094 212.527344 C 194.40625 193.503906 214.359375 177.191406 236.011719 163.816406 C 238.78125 162.605469 243.820312 160.21875 251.269531 156.570312 C 245.835938 159.570312 240.503906 162.757812 235.28125 166.136719 C 230.054688 169.511719 224.949219 173.070312 219.957031 176.808594 C 214.96875 180.546875 210.105469 184.453125 205.371094 188.535156 C 200.636719 192.617188 196.042969 196.859375 191.585938 201.265625 C 187.132812 205.671875 182.828125 210.226562 178.671875 214.9375 C 174.515625 219.644531 170.519531 224.496094 166.683594 229.488281 C 162.847656 234.480469 159.179688 239.597656 155.679688 244.851562 C 152.179688 250.101562 148.855469 255.46875 145.707031 260.953125 C 142.5625 266.4375 139.597656 272.027344 136.820312 277.722656 C 134.039062 283.414062 131.449219 289.203125 129.050781 295.078125 C 126.652344 300.957031 124.445312 306.910156 122.4375 312.941406 C 120.429688 318.976562 118.625 325.074219 117.015625 331.234375 C 115.410156 337.394531 114.007812 343.601562 112.808594 349.863281 C 111.609375 356.121094 110.617188 362.414062 109.832031 368.746094 C 109.046875 375.074219 108.46875 381.425781 108.101562 387.792969 C 107.734375 394.164062 107.578125 400.539062 107.628906 406.921875 C 107.730469 416.660156 108.320312 426.371094 109.394531 436.046875 C 110.472656 445.726562 112.03125 455.320312 114.070312 464.828125 C 116.109375 474.339844 118.617188 483.714844 121.597656 492.953125 C 124.574219 502.191406 128.011719 511.246094 131.898438 520.113281 C 125.964844 509.351562 121.628906 500.367188 119.019531 494.871094 C 112.84375 481.878906 107.15625 469.027344 104.847656 462.898438 C 102.109375 455.648438 99.507812 446.832031 98.183594 433.304688 C 99.125 445.597656 97.679688 439.738281 96.191406 436.113281 C 94.964844 433.113281 92.820312 434.617188 99.417969 464.035156 C 102.34375 477.105469 108.515625 499.648438 121.847656 526.039062 C 128.535156 541.875 152.105469 588.152344 200.828125 626.515625 C 225.007812 645.597656 251.066406 659.351562 276.539062 668.726562 C 274.402344 667.582031 278.566406 668.488281 279.726562 668.8125 C 288.792969 671.324219 300.75 674.675781 315.242188 677.40625 C 332.351562 681.667969 349.695312 684.179688 367.273438 684.941406 C 366.65625 684.917969 366.125 684.917969 365.492188 684.894531 C 362.046875 685.527344 337.753906 685.707031 305.28125 677.605469 C 295.878906 675.257812 286.25 672.296875 276.539062 668.722656 C 277.765625 669.378906 281.03125 670.703125 288.242188 673.238281 C 299.472656 677.179688 333.882812 688.371094 379.046875 687.855469 C 379.726562 687.808594 380.242188 687.742188 380.933594 687.695312 C 390.996094 686.902344 400.492188 685.558594 403.746094 684.671875 C 405.953125 684.070312 403.121094 684.515625 391.777344 684.855469 C 397.410156 684.574219 403.027344 684.117188 408.632812 683.472656 C 414.242188 682.832031 419.820312 682.007812 425.378906 681.007812 C 430.933594 680.003906 436.453125 678.820312 441.941406 677.460938 C 447.425781 676.101562 452.863281 674.566406 458.257812 672.855469 C 463.648438 671.144531 468.984375 669.257812 474.265625 667.203125 C 479.542969 665.144531 484.757812 662.917969 489.902344 660.527344 C 495.046875 658.132812 500.117188 655.574219 505.105469 652.851562 C 510.097656 650.132812 515.003906 647.25 519.820312 644.210938 C 524.636719 641.171875 529.359375 637.980469 533.984375 634.636719 C 538.613281 631.292969 543.132812 627.804688 547.546875 624.167969 C 551.964844 620.53125 556.265625 616.753906 560.453125 612.839844 C 564.640625 608.925781 568.707031 604.878906 572.652344 600.703125 C 576.597656 596.523438 580.410156 592.222656 584.097656 587.796875 C 587.785156 583.375 591.332031 578.835938 594.746094 574.179688 C 598.15625 569.527344 601.425781 564.769531 604.550781 559.902344 C 607.675781 555.039062 610.652344 550.074219 613.480469 545.019531 C 623.257812 529.652344 637.503906 503.027344 645.429688 467.777344 C 634.613281 523.246094 621.035156 538.382812 619.429688 543.332031 C 617.742188 548.535156 622.929688 541.339844 618.621094 548.746094 C 598.824219 583.003906 572.574219 609.773438 572.503906 609.855469 C 567.953125 615.050781 571.710938 612.746094 579.386719 606.277344 C 585.214844 601.367188 591.902344 594.894531 595.589844 591.75 C 608.988281 575.671875 617.203125 562.421875 619.664062 558.453125 C 624.902344 550 624.007812 551.515625 619.601562 558.660156 C 613.558594 568.457031 605.761719 579.71875 596.035156 591.382812 C 596.539062 590.964844 597.191406 590.378906 597.53125 590.140625 C 599.605469 588.710938 598.976562 591.59375 590.8125 601.242188 C 581.253906 611.59375 571.699219 620.445312 562.746094 627.730469 C 550.390625 637.804688 540.015625 644.648438 532.898438 648.894531 C 528.074219 652.148438 522.769531 655.511719 516.945312 658.882812 C 490.066406 674.871094 470.582031 683.1875 459.097656 687.210938 C 478.109375 681.832031 521.957031 666.496094 564.308594 629.632812 C 566.804688 627.464844 569.296875 625.214844 571.785156 622.886719 C 569.246094 625.300781 566.761719 627.566406 564.359375 629.699219 C 528.914062 661.1875 513.550781 666.808594 517.917969 665.761719 C 522.289062 664.71875 544.402344 654.191406 568.492188 634.71875 C 597.902344 610.964844 622.015625 580.832031 638.566406 548.808594 C 622.265625 580.628906 599.234375 611.011719 569.867188 636.382812 C 527.246094 673.21875 482.652344 689.925781 455.488281 697.816406 C 444.089844 701.128906 437.347656 703.429688 436.855469 703.929688 C 417.082031 708.277344 398.316406 710.585938 381.035156 711.414062 C 340.9375 713.324219 312.808594 707.851562 308.65625 708.160156 C 304.507812 708.46875 324.382812 718.40625 381.054688 716.480469 C 383.140625 716.40625 385.273438 716.3125 387.449219 716.1875 C 385.292969 716.273438 383.160156 716.328125 381.054688 716.363281 C 357.667969 716.707031 338.875 713.777344 334.914062 712.761719 C 331.128906 711.792969 342.636719 715.148438 381.042969 714.082031 C 396.175781 713.65625 416.808594 711.996094 440.828125 706.632812 C 513.410156 690.765625 559.25 653.40625 573.753906 641.101562 C 587.152344 629.734375 587.617188 629.445312 574.035156 641.441406 C 563.308594 650.914062 535.015625 674.757812 491.289062 693.40625 C 437.382812 716.628906 391.355469 719.0625 381.066406 719.476562 C 368.417969 719.980469 342.128906 719.964844 307.023438 711.386719 C 264.125 701.425781 220.101562 682.617188 180.179688 652.042969 C 146.550781 626.253906 125.746094 599.179688 121.339844 594.300781 C 116.984375 589.46875 124.632812 611.957031 178.371094 654.285156 C 180.839844 656.230469 183.417969 658.195312 186.109375 660.175781 C 183.261719 658.085938 180.667969 656.117188 178.34375 654.3125 C 148.746094 631.285156 155.675781 636.363281 161.246094 642.667969 C 163.445312 645.160156 165.355469 647.820312 165.203125 648.425781 C 168.515625 651.230469 172.03125 654.148438 175.972656 657.238281 C 221.972656 693.222656 274.136719 714.273438 325.351562 722.929688 C 345.996094 726.417969 358.730469 726.90625 355.597656 726.917969 C 354.660156 726.921875 352.066406 726.984375 348.066406 726.804688 C 344.082031 726.429688 340.433594 726.019531 337.597656 725.585938 C 291.777344 719.925781 256.738281 705.679688 237.238281 696.527344 C 230.984375 693.589844 225.300781 690.667969 220.171875 687.898438 C 217.75 686.492188 215.753906 685.355469 212.664062 683.511719 C 196.082031 674.152344 183.285156 665.035156 174.839844 658.636719 C 171.191406 655.867188 169.742188 654.816406 167.128906 652.851562 C 162.96875 649.367188 157.859375 644.925781 151.890625 639.179688 C 156.257812 643.414062 160.925781 647.6875 165.914062 651.945312 C 147.894531 638.457031 154.546875 644.261719 173.847656 659.867188 C 198.191406 679.5 228.800781 697.742188 264.546875 710.703125 C 296.371094 722.238281 320.65625 725.660156 310.003906 723.140625 C 332.648438 727.484375 351.96875 728.683594 365.890625 728.875 C 365.929688 728.882812 365.96875 728.890625 366.003906 728.902344 C 366.054688 728.894531 366.234375 728.894531 366.292969 728.886719 C 372.296875 728.964844 377.386719 728.875 381.105469 728.738281 C 406.972656 727.785156 400.410156 727.808594 387.035156 728.011719 C 407.914062 726.789062 438.90625 723.246094 475.027344 711.042969 C 497.816406 703.339844 519.308594 693.308594 539.175781 681.347656 C 502.597656 704.226562 476.683594 710.589844 476.726562 710.539062 C 476.777344 710.476562 517.019531 706.207031 582.097656 651.242188 C 592.746094 642.234375 603.839844 631.625 614.820312 619.199219 C 616.140625 617.617188 617.511719 615.945312 618.894531 614.238281 C 620.167969 612.734375 630.203125 599.097656 638.382812 587.921875 C 638.496094 587.753906 638.609375 587.597656 638.722656 587.429688 C 638.773438 587.378906 638.824219 587.304688 638.867188 587.261719 C 647.601562 575.324219 650.824219 570.816406 640.425781 584.882812 C 659.609375 555.824219 679.183594 516.8125 688.710938 467.34375 C 697.367188 422.203125 693.859375 385.128906 691.988281 368.140625 C 690.503906 354.644531 693.921875 357.929688 695.40625 389.4375 C 694.777344 374.707031 694.234375 374.089844 695.367188 380.28125 C 697.171875 390.171875 698.789062 407.007812 698.28125 423.796875 C 697.789062 441.390625 695.933594 456.476562 693.9375 468.382812 C 688.082031 503.019531 682.460938 515.917969 682.117188 518.664062 C 681.773438 521.40625 685.269531 513.753906 688.535156 505.152344 C 691.792969 496.574219 694.703125 487.085938 695.191406 487.078125 C 695.675781 487.070312 694.929688 496.972656 684.539062 525.214844 C 689.007812 513.855469 698.1875 489.484375 699.304688 488.542969 C 701.359375 486.808594 705.359375 509.683594 669.019531 575.144531 C 662.980469 585.230469 666.3125 581.640625 663.097656 589.816406 C 662.15625 592.207031 651.097656 618.199219 617.878906 651.828125 C 652.761719 616.929688 673.867188 579.703125 676.675781 575.007812 C 682.050781 566 690.507812 551.851562 698.675781 531.816406 C 710.050781 501.75 715.289062 473.828125 715.539062 472.71875 C 716.136719 470.03125 716.300781 469.910156 715.953125 472.804688 C 715.046875 480.1875 711.171875 503.742188 700.96875 532.496094 C 690.246094 562.730469 675.292969 591.441406 656.710938 617.773438 C 638.921875 642.976562 622.148438 659.699219 617.175781 665.148438 C 593.1875 691.445312 640.757812 642.324219 648.292969 633.183594 C 680.5 593.171875 689.351562 570.402344 693.390625 563.5 C 696.757812 557.742188 695.570312 563.058594 689.933594 576.070312 C 684.136719 589.460938 677.363281 601.953125 670.824219 613.011719 C 667.621094 618.429688 660.277344 630.429688 670.738281 615.09375 C 697.703125 574.292969 719.015625 527.546875 729.765625 475.570312 C 732.058594 464.277344 733.742188 453.226562 734.914062 442.441406 C 738.359375 397.765625 732.117188 365.148438 731.007812 359.390625 C 728.378906 345.722656 728.273438 350.589844 728.296875 353.042969 C 728.335938 357.078125 728.46875 360.167969 726.515625 351.019531 C 726.0625 348.90625 719.152344 310 701.003906 268.832031 C 682.53125 228.179688 672.851562 219.101562 675.449219 224.363281 C 678.582031 230.707031 689.90625 249.375 700.945312 277.488281 C 712.351562 306.53125 719.308594 335.109375 722.917969 362.300781 C 726.230469 387.257812 726.046875 403.960938 725.941406 398.484375 C 724.539062 358.675781 712.792969 318.496094 702.898438 299.113281 C 698.476562 290.453125 699.65625 295.59375 703.722656 311.121094 C 706.980469 323.578125 718.882812 366.40625 717.894531 419.71875 C 718.0625 378.550781 710.28125 348.300781 708.605469 341.980469 C 705.507812 330.265625 706.042969 335.136719 706.589844 338.488281 C 707.03125 341.203125 707.449219 343.703125 707.96875 346.78125 C 707.328125 343.496094 706.46875 339.324219 704.980469 332.898438 C 682.570312 240.570312 642.628906 205.757812 641.03125 205.652344 C 639.433594 205.550781 675.742188 239.566406 697.761719 328.636719 C 682.011719 273.125 656.511719 236.964844 655.707031 236.015625 C 655.304688 235.535156 661.238281 243.5625 671.859375 265 C 680.445312 282.335938 695.351562 316.148438 702.359375 361.746094 C 700.398438 350.304688 696.816406 333.984375 690.511719 315.347656 C 679.421875 282.566406 660.796875 244.902344 630.90625 209.808594 C 580.890625 151.265625 518.488281 121.28125 467.230469 106.121094 C 509.914062 117.691406 537.851562 131.128906 554.433594 141.136719 C 535.703125 128.167969 503.035156 109.828125 454.761719 99.476562 C 443.496094 96.320312 421.960938 91.320312 395.410156 89.660156 C 361.570312 87.585938 331.722656 91.511719 307.996094 96.730469 C 336.003906 89.238281 365.546875 85.441406 395.585938 86.109375 C 460.113281 87.644531 508.734375 109.277344 528.71875 118.835938 C 537.828125 123.195312 538.839844 123.523438 528.265625 118.171875 C 520.214844 114.09375 492.863281 100.488281 455.105469 91.867188 C 434.351562 87.152344 414.410156 84.699219 395.691406 83.933594 C 380.230469 83.328125 365.4375 83.871094 351.386719 85.226562 Z M 554.4375 141.152344 C 563.652344 147.53125 569.59375 152.648438 572.195312 154.789062 C 576.957031 158.707031 572.273438 151.914062 554.4375 141.152344 Z M 734.921875 442.460938 C 734.476562 448.230469 733.886719 454.175781 733.085938 460.320312 C 732.339844 465.722656 731.507812 470.871094 730.617188 475.757812 C 726.992188 495.195312 723.15625 510.433594 719.65625 522.09375 C 723.816406 509.710938 728.253906 494.246094 731.773438 475.984375 C 738.367188 441.050781 739.910156 402.863281 734.71875 363.527344 C 737.457031 387.289062 738.023438 413.886719 734.921875 442.453125 Z M 734.71875 363.53125 C 730.824219 329.726562 722.535156 301.667969 714.058594 281.984375 C 724.515625 309.265625 731.171875 336.667969 734.71875 363.53125 Z M 719.65625 522.09375 C 713.757812 539.648438 708.4375 550.8125 707.214844 553.28125 C 705.777344 556.183594 711.894531 547.96875 719.65625 522.09375 Z M 695.414062 389.449219 C 695.617188 394.222656 695.828125 400.378906 695.996094 408.394531 C 695.894531 401.070312 695.671875 394.960938 695.414062 389.449219 Z M 638.871094 587.273438 C 638.714844 587.492188 638.550781 587.714844 638.390625 587.933594 C 631.902344 597.546875 625.492188 606.0625 619.585938 613.402344 C 636.757812 592.550781 641.238281 584.75 638.875 587.273438 Z M 366.007812 728.914062 C 365.570312 728.976562 365.65625 729.070312 366.582031 729.199219 C 366.695312 729.097656 366.445312 729 366.007812 728.914062 Z M 165.207031 648.445312 C 149.347656 635.015625 140.894531 625.628906 143.105469 628.402344 C 159.851562 645.453125 164.972656 649.375 165.207031 648.445312 Z M 459.101562 687.226562 C 454.824219 688.4375 451.386719 689.316406 449.980469 689.628906 C 443.929688 690.972656 447.25 691.382812 459.101562 687.226562 Z M 532.902344 648.90625 C 546.695312 639.601562 556.382812 631.234375 561.640625 626.398438 C 563.949219 624.277344 565.5625 622.753906 567.027344 621.363281 C 565.140625 623.042969 563.261719 624.707031 561.484375 626.207031 C 534.628906 648.9375 521.316406 654.804688 523.039062 654.214844 C 523.792969 653.960938 527.398438 652.191406 532.902344 648.90625 Z M 567.027344 621.363281 C 569.929688 618.78125 572.90625 616.0625 576.007812 613.050781 C 578.4375 610.679688 580.734375 608.316406 582.96875 605.972656 C 578.519531 610.601562 573.757812 615.230469 568.675781 619.789062 C 568.199219 620.253906 567.632812 620.789062 567.027344 621.363281 Z M 568.675781 619.789062 C 578.117188 610.617188 563.539062 622.273438 560.320312 624.792969 C 545.285156 636.585938 524.203125 651.429688 495.296875 664.355469 C 466.964844 677.023438 442.980469 682.453125 429.792969 685.078125 C 407.996094 689.371094 390.609375 690.054688 380.941406 690.085938 C 353.183594 690.210938 363.605469 689.132812 378.160156 687.945312 C 330.230469 688.628906 291.113281 676.863281 268.136719 668.191406 C 243.277344 658.808594 230.453125 651.253906 227.234375 650.023438 C 220.789062 647.566406 252.683594 677.042969 330.644531 687.886719 C 306.792969 685.078125 327.832031 694.414062 380.957031 693.71875 C 420.863281 693.226562 481.246094 682.855469 539.105469 642.179688 C 527.152344 651.621094 553.191406 632.953125 561.394531 626.105469 C 563.898438 624.019531 566.308594 621.910156 568.671875 619.789062 Z M 378.160156 687.941406 C 379.089844 687.929688 380 687.945312 380.9375 687.917969 C 384.984375 687.828125 389.105469 687.640625 393.304688 687.355469 C 389.054688 687.628906 384.929688 687.789062 380.9375 687.859375 C 380.296875 687.871094 379.683594 687.859375 379.046875 687.867188 C 378.730469 687.894531 378.476562 687.917969 378.160156 687.945312 Z M 582.972656 605.96875 C 586.378906 602.425781 589.539062 598.890625 592.585938 595.371094 C 589.617188 598.816406 586.398438 602.371094 582.972656 605.96875 Z M 596.042969 591.394531 C 595.890625 591.519531 595.757812 591.621094 595.597656 591.757812 C 594.742188 592.785156 593.976562 593.753906 593.078125 594.800781 C 594.054688 593.664062 595.097656 592.523438 596.042969 591.394531 Z M 122.011719 303.914062 C 118.707031 312.867188 116.167969 321.101562 114.167969 328.414062 C 114.355469 327.976562 114.796875 326.765625 115.214844 325.613281 C 117.644531 316.9375 119.960938 309.988281 121.503906 305.546875 C 121.753906 304.820312 121.917969 304.289062 122.011719 303.914062 Z M 104.914062 360.457031 C 107.234375 342.152344 112.964844 313.660156 127.960938 281.332031 C 104.769531 330.351562 100.960938 373.953125 100.609375 397.1875 C 100.226562 422.359375 102.707031 433.460938 102.886719 432.820312 C 103.152344 431.894531 97.300781 404.53125 104.914062 360.457031 Z M 106.945312 338.546875 C 106.917969 338.636719 106.894531 338.726562 106.882812 338.816406 C 100.035156 369.335938 98.613281 378.925781 104.511719 351.796875 C 105.160156 347.671875 105.976562 343.234375 106.945312 338.550781 Z M 104.507812 351.796875 C 104.222656 353.613281 103.945312 355.425781 103.710938 357.121094 C 103.609375 357.898438 103.519531 358.4375 103.417969 359.183594 C 104.171875 354.964844 105.007812 350.355469 106.035156 344.851562 C 105.324219 348.1875 105.074219 349.191406 104.507812 351.796875 Z M 103.417969 359.183594 C 97.546875 391.992188 99.539062 386.863281 103.417969 359.183594 Z M 266.421875 129.222656 C 243.601562 138.957031 223.007812 151.15625 205.910156 164.773438 C 223.628906 151.328125 244 139.136719 266.421875 129.222656 Z M 199.289062 148.828125 C 189.320312 156.0625 189.363281 156.6875 195.507812 151.753906 C 196.484375 150.96875 198.046875 149.792969 199.289062 148.828125 Z M 255.441406 108.707031 C 237.28125 115.945312 223.203125 123.203125 214.261719 128.101562 C 202.136719 134.742188 193.824219 139.609375 188.746094 142.703125 C 194.859375 137.4375 200.164062 131.496094 178.648438 147.371094 C 161.957031 159.6875 149.203125 172.265625 142.355469 179.425781 C 143.738281 177.972656 152.84375 168.300781 165.585938 157.324219 C 188.363281 138.039062 196.976562 133.179688 191.332031 136.570312 C 187.644531 138.78125 170.910156 149.585938 151.300781 168.367188 C 148.710938 171.585938 145.699219 175.25 142.257812 179.328125 C 129.589844 194.429688 111.96875 217.144531 95.304688 247.582031 C 72.214844 297.023438 70.730469 321.707031 82.195312 296.671875 C 80.511719 297.988281 97.621094 240.039062 148.101562 184.898438 C 178.011719 152.335938 214.902344 126.457031 255.441406 108.710938 Z M 82.195312 296.671875 C 82.390625 296.519531 82.820312 295.636719 83.492188 293.824219 C 83.027344 294.894531 82.625 295.738281 82.195312 296.671875 Z M 151.304688 168.367188 C 153.097656 166.140625 154.417969 164.414062 155.796875 162.628906 C 150.800781 167.429688 145.792969 172.53125 140.835938 177.980469 C 131.421875 188.382812 122.234375 199.953125 113.554688 212.660156 C 122.804688 199.351562 132.296875 187.957031 141.285156 178.40625 C 144.683594 174.8125 148.023438 171.511719 151.304688 168.367188 Z M 113.554688 212.664062 C 112.789062 213.78125 112.023438 214.902344 111.269531 216.039062 C 112.03125 214.910156 112.789062 213.765625 113.554688 212.664062 Z M 111.269531 216.039062 C 100.195312 232.433594 89.550781 251.589844 80.632812 273.710938 C 89.390625 252.421875 99.847656 233.210938 111.269531 216.039062 Z M 155.796875 162.628906 C 192.472656 127.390625 228.480469 109.34375 238.703125 104.207031 C 252.320312 97.359375 236.457031 99.90625 190.726562 133.171875 C 179.277344 141.238281 168.765625 149.652344 159.089844 158.25 C 158.167969 159.519531 157.089844 160.957031 155.796875 162.628906 Z M 159.089844 158.246094 C 167.113281 147.171875 161.382812 151.238281 139.425781 176.636719 C 139.144531 176.960938 138.863281 177.289062 138.582031 177.621094 C 127.09375 190.160156 120.25 198.53125 116.296875 203.652344 C 123.019531 195.160156 130.769531 186.101562 139.652344 176.855469 C 145.703125 170.597656 152.191406 164.375 159.089844 158.246094 Z M 116.296875 203.648438 C 115.949219 204.085938 115.617188 204.515625 115.277344 204.949219 C 115.550781 204.589844 115.984375 204.054688 116.296875 203.648438 Z M 115.277344 204.949219 C 114.351562 206.128906 113.464844 207.28125 112.582031 208.4375 C 112.53125 208.539062 112.394531 208.726562 112.34375 208.816406 C 111.160156 210.929688 111.519531 209.894531 115.277344 204.949219 Z M 112.582031 208.4375 C 115.574219 203.199219 124.835938 189.539062 137.476562 174.78125 C 149.601562 160.707031 163.234375 148.027344 166.835938 144.257812 C 170.4375 140.488281 162.53125 144.011719 137.988281 169.4375 C 136.996094 170.460938 136.023438 171.476562 135.066406 172.488281 C 81.527344 229.625 77.832031 258.878906 81.847656 253.988281 C 84.683594 250.53125 94.398438 232.167969 112.582031 208.433594 Z M 450.640625 98.613281 C 451.535156 98.789062 452.132812 98.929688 452.917969 99.09375 C 452.152344 98.9375 451.414062 98.769531 450.640625 98.613281 Z M 454.957031 99.539062 C 463.179688 101.394531 464.074219 102.300781 459.683594 100.929688 C 458.429688 100.539062 456.800781 100.058594 454.957031 99.539062 Z M 382.859375 122.207031 C 386.46875 122.167969 390.121094 122.207031 393.816406 122.320312 C 462.769531 124.320312 518.523438 152.160156 555.191406 179.152344 C 552.726562 177.886719 547.945312 175.023438 544.820312 173.070312 C 523.8125 159.128906 504.140625 149.96875 489.382812 144.089844 C 491.453125 145.019531 493.515625 145.96875 495.519531 146.976562 C 495.058594 147.613281 482.042969 143.582031 477.101562 142.601562 C 460.855469 136.03125 444.152344 131.128906 426.992188 127.894531 C 409.832031 124.664062 392.53125 123.164062 375.09375 123.390625 C 356.726562 123.703125 338.582031 125.929688 320.652344 130.0625 C 339.382812 125.507812 360.265625 122.421875 382.863281 122.203125 Z M 489.378906 144.09375 C 472.703125 136.621094 454.839844 131.800781 451.148438 131.394531 C 450.125 131.28125 455.238281 132.304688 470.164062 137.152344 C 474.636719 138.605469 481.300781 140.875 489.378906 144.09375 Z M 533.863281 163.089844 C 534.261719 163.289062 539.074219 166.742188 544.269531 170.378906 C 557.492188 179.632812 558.289062 180.730469 555.285156 179.207031 C 553.515625 177.910156 551.882812 176.667969 549.957031 175.308594 C 537.484375 165.9375 533.464844 162.890625 533.863281 163.089844 Z M 520.46875 165.011719 C 534.734375 173.222656 552.453125 184.878906 570.367188 200.933594 C 587.066406 215.664062 597.671875 228.753906 601.085938 233.0625 C 608.042969 241.785156 602.40625 235.125 600.820312 233.269531 C 593.863281 225.085938 579.671875 208.9375 557.65625 192.007812 C 554.394531 189.5 551.082031 187.101562 547.753906 184.765625 C 539.046875 177.601562 529.953125 171.015625 520.464844 165.011719 Z M 590.953125 210.351562 C 592.210938 211.699219 592.898438 212.484375 592.332031 211.886719 C 592.136719 211.679688 591.367188 210.824219 590.953125 210.351562 Z M 576.964844 212.746094 C 584.007812 219.746094 590.945312 227.378906 597.601562 235.777344 C 635.933594 283.835938 654.328125 342.15625 657.375 395.125 C 654.308594 349.945312 639.539062 304.3125 614.351562 265.535156 C 603.882812 246.421875 591.417969 228.824219 576.960938 212.742188 Z M 658.574219 342.308594 C 658.355469 340.964844 659.121094 344.832031 661.265625 355.175781 C 668.117188 390.3125 668.480469 426.78125 661.675781 461.921875 C 654.996094 496.679688 642.421875 526.832031 627.335938 552.277344 C 643.402344 524.675781 655.1875 494.054688 661.261719 461.84375 C 669.417969 418.882812 665.453125 382.175781 661.796875 360.730469 C 660 350.210938 658.796875 343.652344 658.574219 342.308594 Z M 128.261719 526.25 C 128.574219 526.1875 133.65625 535.046875 139.640625 543.980469 C 143.304688 549.449219 146.882812 554.355469 149.671875 558.035156 C 146.742188 553.992188 142.382812 547.449219 136.707031 537.84375 C 138.808594 540.53125 141.402344 543.605469 144.300781 546.757812 C 144.980469 547.492188 145.675781 548.195312 146.367188 548.925781 C 154.460938 562.882812 163.65625 576.015625 173.949219 588.316406 C 184.246094 600.621094 195.488281 611.910156 207.679688 622.1875 C 207.007812 621.65625 206.324219 621.136719 205.65625 620.601562 C 184.023438 603.230469 168.066406 585.121094 156.296875 570.527344 C 133.203125 541.269531 128.628906 527.765625 128.265625 526.390625 C 128.242188 526.300781 128.242188 526.257812 128.257812 526.253906 Z M 149.691406 558.066406 C 153.308594 563.050781 154.855469 564.460938 154.398438 563.984375 C 153.804688 563.355469 152.003906 561.113281 149.691406 558.066406 Z M 212.90625 686.117188 C 221.523438 690.773438 230.78125 695.148438 235.3125 696.773438 C 236.367188 697.152344 236.589844 697.210938 236.1875 696.96875 C 251.035156 703.910156 266.15625 709.613281 281.300781 714.148438 C 247.945312 704.574219 223.050781 691.730469 212.902344 686.117188 Z M 467.019531 695.890625 C 462.164062 697.4375 457.375 698.804688 452.617188 700.089844 C 456.648438 698.949219 461.257812 697.613281 467.019531 695.890625 Z M 315.640625 722.503906 C 323.382812 723.976562 330.5 725.074219 336.832031 725.90625 C 331.160156 725.261719 324.078125 724.171875 315.640625 722.503906 Z M 315.640625 722.503906 " fill-opacity="1" fill-rule="nonzero"/></g><g clip-path="url(#d80370a9ea)"><g clip-path="url(#bfd190f115)"><path fill="#ffcdce" d="M 328.210938 309.332031 L 571.210938 309.332031 L 571.210938 552.332031 L 328.210938 552.332031 Z M 328.210938 309.332031 " fill-opacity="1" fill-rule="nonzero"/></g></g></svg>