<?xml version="1.0" encoding="utf-8"?>
<svg version="1.1" id="Calque_1" xmlns="http://www.w3.org/2000/svg" xmlns:xlink="http://www.w3.org/1999/xlink" x="0px" y="0px"
	 viewBox="0 0 56.69 56.69" style="enable-background:new 0 0 56.69 56.69;" xml:space="preserve">
<style type="text/css">
	.st0{fill:#currentColor;}
</style>
<path class="st0" d="M39.44,28.81c3.07-2.62,21.19-13.3,14.3-16.53c-5.38-2.52-16.3,8.25-20.9,9.79c-2.35-4.02-3.07-15.56-6.3-20.12
	c-2.95-4.18-6.87-0.52-7.37,4.61c-0.35,3.54,0.49,7.95,1.12,11.32c1.31,6.96,0.29,4.19-6.23,2.39C12.27,19.78,3.9,17.51,2.42,18.5
	C-4.5,23.08,15.7,31.45,18.08,32.34c-2.09,1.61-18.45,14.19-10.44,16.1c4.65,1.11,13.46-7.42,17.21-8.68c0,0,0.97-1.28,1.25,1.67
	c0.21,2.19,1.69,14.81,5.39,15.12c3.71,0.3,5.56-7.26,4.33-15.22c-0.24-1.06-0.21-1.66-0.01-1.96c0.57-0.91,14.43,5.87,17.9,1.95
	C55.65,38.73,51.07,33.18,39.44,28.81z"/>
</svg>
