<svg id="Calque_1" data-name="Calque 1" xmlns="http://www.w3.org/2000/svg" viewBox="0 0 33.6 34.91"><defs><style>.cls-1{fill:#ff4438;}</style></defs><path class="cls-1" d="M35.63,28.73c1.91-1.62,13.12-8.23,8.85-10.23-3.32-1.56-10.08,5.11-12.93,6.06-1.45-2.48-1.9-9.63-3.89-12.45-1.83-2.58-4.25-.32-4.56,2.85a26.81,26.81,0,0,0,.69,7c.81,4.31.18,2.59-3.85,1.48-1.11-.3-6.29-1.7-7.21-1.09-4.28,2.84,8.21,8,9.69,8.56-1.3,1-11.42,8.78-6.46,10,2.88.69,8.33-4.59,10.65-5.37,0,0,.6-.79.77,1,.13,1.35,1.05,9.16,3.34,9.35s3.44-4.5,2.68-9.42c-.15-.66-.13-1,0-1.21.35-.57,8.93,3.63,11.07,1.2C45.66,34.87,42.83,31.43,35.63,28.73Z" transform="translate(-11.84 -10.99)"/></svg>