<svg xmlns="http://www.w3.org/2000/svg" xmlns:xlink="http://www.w3.org/1999/xlink" width="400" zoomAndPan="magnify" viewBox="0 0 300 299.999988" height="400" preserveAspectRatio="xMidYMid meet" version="1.0"><defs><clipPath id="e681b51d15"><path d="M 0 0.59375 L 298.5 0.59375 L 298.5 299.09375 L 0 299.09375 Z M 0 0.59375 " clip-rule="nonzero"/></clipPath></defs><g clip-path="url(#e681b51d15)"><path fill="#000000" d="M 269.667969 299.113281 L 28.832031 299.113281 C 12.933594 299.113281 0 286.175781 0 270.277344 L 0 29.445312 C 0 13.546875 12.933594 0.613281 28.832031 0.613281 L 269.667969 0.613281 C 285.566406 0.613281 298.5 13.546875 298.5 29.445312 L 298.5 270.277344 C 298.5 286.175781 285.566406 299.113281 269.667969 299.113281 Z M 28.832031 17.570312 C 22.289062 17.570312 16.960938 22.898438 16.960938 29.445312 L 16.960938 270.277344 C 16.960938 276.824219 22.289062 282.152344 28.832031 282.152344 L 269.667969 282.152344 C 276.210938 282.152344 281.539062 276.824219 281.539062 270.277344 L 281.539062 29.445312 C 281.539062 22.898438 276.210938 17.570312 269.667969 17.570312 Z M 28.832031 17.570312 " fill-opacity="1" fill-rule="nonzero"/></g><path fill="#000000" d="M 110.101562 163.734375 L 98.324219 199.40625 L 83.179688 199.40625 L 121.882812 85.996094 L 139.378906 85.996094 L 178.082031 199.40625 L 162.433594 199.40625 L 150.320312 163.734375 Z M 147.457031 152.292969 L 136.183594 119.648438 C 133.660156 112.246094 131.980469 105.515625 130.296875 98.953125 L 129.957031 98.953125 C 128.273438 105.515625 126.59375 112.582031 124.238281 119.480469 L 113.132812 152.296875 L 147.457031 152.296875 Z M 147.457031 152.292969 " fill-opacity="1" fill-rule="nonzero"/><path fill="#000000" d="M 210.222656 95.082031 C 210.222656 100.132812 206.6875 104.167969 200.800781 104.167969 C 195.414062 104.167969 191.882812 100.128906 191.882812 95.082031 C 191.882812 90.035156 195.585938 85.828125 201.136719 85.828125 C 206.523438 85.828125 210.222656 89.867188 210.222656 95.082031 Z M 193.734375 199.40625 L 193.734375 117.96875 L 208.542969 117.96875 L 208.542969 199.410156 L 193.734375 199.410156 Z M 193.734375 199.40625 " fill-opacity="1" fill-rule="nonzero"/></svg>