<svg id="Calque_1" data-name="Calque 1" xmlns="http://www.w3.org/2000/svg" viewBox="0 0 48 48"><defs><style>.cls-1{fill-rule:evenodd; fill:white}</style></defs><path class="cls-1" d="M38.84,9a1.72,1.72,0,0,1,0,2.4,1.67,1.67,0,0,1-2.37,0,1.72,1.72,0,0,1,0-2.4,1.67,1.67,0,0,1,2.37,0" transform="translate(0)"/><path class="cls-1" d="M2.39,33.92V14.08a11.73,11.73,0,0,1,3.37-8.2A11.5,11.5,0,0,1,9.48,3.34a11.23,11.23,0,0,1,4.37-.89h20.3a11.23,11.23,0,0,1,4.37.89,11.7,11.7,0,0,1,6.21,6.31,11.52,11.52,0,0,1,.88,4.43V33.92a11.71,11.71,0,0,1-7.09,10.74,11.23,11.23,0,0,1-4.37.89H13.85a11.23,11.23,0,0,1-4.37-.89A11.72,11.72,0,0,1,2.39,33.92M0,14.08V33.92a14.14,14.14,0,0,0,4.07,9.95,13.87,13.87,0,0,0,4.5,3.06A13.46,13.46,0,0,0,13.85,48h20.3a13.46,13.46,0,0,0,5.28-1.07,13.87,13.87,0,0,0,4.5-3.06A14.14,14.14,0,0,0,48,33.92V14.08a14.14,14.14,0,0,0-4.07-9.95,13.87,13.87,0,0,0-4.5-3.06A13.46,13.46,0,0,0,34.15,0H13.85A13.46,13.46,0,0,0,8.57,1.07a13.87,13.87,0,0,0-4.5,3.06A14.14,14.14,0,0,0,0,14.08Z" transform="translate(0)"/><path class="cls-1" d="M14.75,19.9A10.51,10.51,0,0,1,17,16.53a10.35,10.35,0,0,1,3.32-2.26,10.11,10.11,0,0,1,11.15,2.26,10.47,10.47,0,0,1,0,14.67,10.16,10.16,0,0,1-7.23,3,10.16,10.16,0,0,1-7.24-3,10.51,10.51,0,0,1-2.22-3.37,10.59,10.59,0,0,1,0-7.93M12.54,19a13.19,13.19,0,0,0,0,9.83A12.89,12.89,0,0,0,15.29,33a12.46,12.46,0,0,0,8.92,3.75A12.51,12.51,0,0,0,33.13,33a13,13,0,0,0,0-18.17A12.56,12.56,0,0,0,29,12a12.49,12.49,0,0,0-9.65,0,12.63,12.63,0,0,0-4.09,2.78A12.78,12.78,0,0,0,12.54,19Z" transform="translate(0)"/></svg>
