<svg id="Calque_1" data-name="Calque 1" xmlns="http://www.w3.org/2000/svg" viewBox="0 0 48 48"><defs><style>.cls-1{fill-rule:evenodd;}</style></defs><path class="cls-1" d="M2.39,33.92V14.08a11.73,11.73,0,0,1,3.37-8.2A11.5,11.5,0,0,1,9.48,3.34a11.23,11.23,0,0,1,4.37-.89h20.3a11.23,11.23,0,0,1,4.37.89,11.7,11.7,0,0,1,6.21,6.31,11.52,11.52,0,0,1,.88,4.43V33.92a11.71,11.71,0,0,1-7.09,10.74,11.23,11.23,0,0,1-4.37.89H13.85a11.23,11.23,0,0,1-4.37-.89A11.72,11.72,0,0,1,2.39,33.92M0,14.08V33.92a14.14,14.14,0,0,0,4.07,9.95,13.87,13.87,0,0,0,4.5,3.06A13.46,13.46,0,0,0,13.85,48h20.3a13.46,13.46,0,0,0,5.28-1.07,13.87,13.87,0,0,0,4.5-3.06A14.14,14.14,0,0,0,48,33.92V14.08a14.14,14.14,0,0,0-4.07-9.95,13.87,13.87,0,0,0-4.5-3.06A13.46,13.46,0,0,0,34.15,0H13.85A13.46,13.46,0,0,0,8.57,1.07a13.87,13.87,0,0,0-4.5,3.06A14.14,14.14,0,0,0,0,14.08Z" transform="translate(0)"/><path d="M24.61,18.38c.59-.34,1.06-.67,1.58-.91,3.38-1.56,7.69-.63,9.35,3.19a10,10,0,0,1,.76,4.12c0,3.41,0,6.83,0,10.24,0,.63-.21.81-.81.79-1.08,0-2.18,0-3.26,0-.58,0-.76-.16-.76-.75q0-5.19,0-10.37a5.85,5.85,0,0,0-.33-1.81A2.6,2.6,0,0,0,28.9,21a3.27,3.27,0,0,0-3.09,1.32,3.88,3.88,0,0,0-.82,2.5c0,3.37,0,6.75,0,10.12,0,.64-.18.86-.83.83-1.09,0-2.18,0-3.26,0-.58,0-.71-.2-.71-.74,0-4.76,0-9.52,0-14.28A29,29,0,0,0,20,17.85c-.07-.61.09-.78.7-.75a27.48,27.48,0,0,0,3,0c.56,0,.78.16.77.7A3.74,3.74,0,0,0,24.61,18.38Z" transform="translate(0)"/><path d="M12,26.39c0-2.86,0-5.72,0-8.58,0-.56.14-.73.71-.71,1.11,0,2.23,0,3.33,0,.61,0,.77.18.77.76,0,3.26,0,6.53,0,9.8V35c0,.83,0,.83-.86.84-1.05,0-2.09,0-3.14,0-.6,0-.81-.14-.8-.77C12.05,32.16,12,29.27,12,26.39Z" transform="translate(0)"/><path d="M17.2,13.26A2.66,2.66,0,0,1,14.43,16a2.65,2.65,0,0,1-2.75-2.73,2.71,2.71,0,0,1,2.76-2.82A2.74,2.74,0,0,1,17.2,13.26Z" transform="translate(0)"/></svg>
