<svg id="Calque_1" data-name="Calque 1" xmlns="http://www.w3.org/2000/svg" viewBox="0 0 167.63 62.65"><defs><style>.cls-1{fill:#000;}</style></defs><path class="cls-1" d="M171.54,29.45c.65-.56,4.51-2.83,3-3.52-1.14-.53-3.47,1.76-4.45,2.09-.49-.86-.65-3.31-1.33-4.29s-1.47-.11-1.57,1a8.78,8.78,0,0,0,.24,2.41c.27,1.48.06.89-1.33.51a7.35,7.35,0,0,0-2.48-.38c-1.47,1,2.83,2.76,3.33,2.95-.44.34-3.92,3-2.22,3.43,1,.23,2.87-1.58,3.66-1.85,0,0,.21-.27.27.36.05.46.36,3.15,1.15,3.21s1.18-1.54.92-3.24c-.05-.22-.05-.35,0-.42s3.07,1.25,3.8.42C175,31.56,174,30.38,171.54,29.45Z" transform="translate(-7.28 -4.52)"/><path class="cls-1" d="M137,66.13H31.87a.51.51,0,0,0-.5.52.51.51,0,0,0,.5.52H137a.52.52,0,0,0,.51-.52A.51.51,0,0,0,137,66.13Z" transform="translate(-7.28 -4.52)"/><path class="cls-1" d="M59.47,38.18a8.14,8.14,0,0,1,2-.82l0,.22V51.7c0,3,1.09,4.5,3.35,4.5,2.75,0,3.73-2,3.73-2.55,0-.33-.19-.6-.42-.6s-.33.22-.55.51a2.46,2.46,0,0,1-1.94,1.3c-.83,0-1.31-.52-1.31-3.16V38.34h0V36.55l1.27-.34h0l.12,0a39.09,39.09,0,0,1,4.21-.88,53.61,53.61,0,0,1,5.41-.44c2.24-.07,4.47,0,6.16,0,1,0,2,.15,3,.26l.91.1.66.07.26,0,.33,0c.94.13,1.55.25,2.2.37l.23,0c1.2.22,2.48.49,3.83.77s2.65.54,3.95.78V53.57c0,1.18-.41,1.69-1.35,1.69l-.25,0-.21,0a.34.34,0,0,0,0,.67l1.65,0c.54,0,1.1,0,1.65,0s1.09,0,1.62,0,1.11,0,1.68,0a.31.31,0,0,0,.3-.33.31.31,0,0,0-.3-.34l-.22,0-.24,0c-1,0-1.35-.51-1.35-1.69V37.86c.5.07,1,.14,1.46.18,1.78.18,3.44.24,4.72.24a36.84,36.84,0,0,0,6.89-.56,23.59,23.59,0,0,0,4.67-1.48,22.71,22.71,0,0,0,3.62-1.9l.15-.1a19.18,19.18,0,0,0,2.2-1.74,21.59,21.59,0,0,0,3.73-4.7c2.52-4.49,3.32-13.91-1.42-19.68-2.38-2.9-5.12-3.62-6-3.6a2,2,0,0,0-1.44.53A1.31,1.31,0,0,0,118,6a1.29,1.29,0,0,0,.43.9,1.26,1.26,0,0,0,.8.26h.17a1.21,1.21,0,0,0,.93-.66,7,7,0,0,1,3,1.79l.08.09a12.57,12.57,0,0,1,1,1.17,14.35,14.35,0,0,1,1.91,3.52,20.35,20.35,0,0,1,1.12,5.54,17.13,17.13,0,0,1-.23,4.5,15.6,15.6,0,0,1-2,5.19,15.93,15.93,0,0,1-2.67,3.35,19.25,19.25,0,0,1-6.19,4.17A21.76,21.76,0,0,1,110,37.38h0a48.55,48.55,0,0,1-10.1-.24V29.72a1.4,1.4,0,0,1,0-.36.93.93,0,0,0,.05-.32.31.31,0,0,0-.31-.33,5.36,5.36,0,0,0-.9.18,15.94,15.94,0,0,1-3.48.53.32.32,0,0,0-.31.34.31.31,0,0,0,.31.33c1.09,0,1.61.81,1.61,2.55v4c-1.32-.26-2.63-.53-3.21-.66a83.09,83.09,0,0,0-16.51-2.19c-1.31,0-2.74,0-4.5.1-1.18.06-2.35.18-3.47.35-1.3.2-2.61.46-3.83.71l-.13,0h0c-.12,0-.39.09-.92.24V33.92h0v-1.8c0-.6,0-1,0-1.31s0-.45,0-.69-.21-.6-.45-.6-.46.31-.46.63c0,.13,0,.7,0,.89s0,.6,0,.95c-.09,1.81-.61,3.08-1.36,3.36s-2.69.3-3.2,1.22C58.6,37,59,38.14,59.47,38.18Z" transform="translate(-7.28 -4.52)"/><path class="cls-1" d="M21.53,50.06a.31.31,0,0,0-.3.34,5.14,5.14,0,0,1-1.85,3.87,4.24,4.24,0,0,1-2.51.62h-2c-1.74,0-2.29-.28-2.29-2.2V37.34a1.9,1.9,0,0,1,1.8-2c.19,0,.43.06.57.06a.26.26,0,0,0,.25-.28c0-.18-.11-.27-.41-.27s-1.61.06-3.54.06c-1.67,0-3.27-.06-3.46-.06s-.44.09-.44.27a.26.26,0,0,0,.24.28c.14,0,.39-.06.58-.06A1.74,1.74,0,0,1,9.87,37V53.34a1.87,1.87,0,0,1-1.77,2c-.19,0-.44-.06-.57-.06a.27.27,0,0,0-.25.28c0,.19.11.28.44.28s3.16-.06,4.82-.06h7.52c.73,0,1.09.09,1.28.09a.32.32,0,0,0,.3-.34v-.68c0-1.92.19-3.75.19-4.43A.33.33,0,0,0,21.53,50.06Z" transform="translate(-7.28 -4.52)"/><path class="cls-1" d="M28.28,32a1.59,1.59,0,0,0,0,3.17.55.55,0,0,1,.49.61,1.53,1.53,0,0,1-1.61,1.65.21.21,0,0,0-.2.2c0,.12.11.22.2.2,2-.31,2.9-2,2.9-3.9A1.76,1.76,0,0,0,28.28,32Z" transform="translate(-7.28 -4.52)"/><path class="cls-1" d="M32.16,55.86h.39c.5,0,1.45-.06,2.54-.06s2,0,2.57.06h.46c.23,0,.52,0,.52-.36a.36.36,0,0,0-.33-.37l-.28,0-.37,0c-1,0-1.67-.2-2-.61a1.55,1.55,0,0,1,0-1.39l2.12-6h7.38l2.1,5.8a1.91,1.91,0,0,1,0,1.64c-.27.37-.85.54-1.77.54l-.37,0-.28,0a.36.36,0,0,0-.33.37c0,.25.17.36.54.36h.5c.76,0,2.33-.06,3.74-.06,1.91,0,3.09,0,3.67.06h.35c.22,0,.52,0,.52-.36a.36.36,0,0,0-.33-.37,1.57,1.57,0,0,0-.28,0l-.37,0c-1.3,0-1.72-1.09-2.06-2L43,31.69v0h0c-.15,0-.33.25-.6.62-.47.66-1.11,1.55-1.94,1.55a.1.1,0,0,0-.07,0c0,.08,0,.27.23.72a3.32,3.32,0,0,1,.32.91,1.26,1.26,0,0,1-.09.48L34.77,53c-.55,1.63-1.48,2.21-2.18,2.21l-.37,0-.28,0a.36.36,0,0,0-.33.37C31.61,55.75,31.78,55.86,32.16,55.86Zm9.31-19,3.33,9.26H38.19Z" transform="translate(-7.28 -4.52)"/><path class="cls-1" d="M77.78,46.82h9.77c.18,0,.3-.19.3-.38,0-3.88-2.68-7-6-7-4.11,0-7.1,3.51-7.1,8.36a9,9,0,0,0,2.42,6.44,6.51,6.51,0,0,0,4.68,1.92h.07c3.6,0,5.42-2.38,5.42-2.85a.47.47,0,0,0-.44-.49c-.19,0-.35.15-.57.36a5,5,0,0,1-3.92,1.33c-2.67,0-4.68-2.88-4.68-6.71,0-.3,0-.54,0-.73A1.62,1.62,0,0,0,77.78,46.82Zm3.83-6.45c2.28,0,2.53,3.17,2.53,4.54,0,.74-.08.94-.39.94l-5.93.22C77.85,43.65,79.16,40.37,81.61,40.37Z" transform="translate(-7.28 -4.52)"/><path class="cls-1" d="M112.89,34.24a1.8,1.8,0,1,0-1.89-1.8A1.88,1.88,0,0,0,112.89,34.24Z" transform="translate(-7.28 -4.52)"/><path class="cls-1" d="M110.68,55.33l-.25,0-.21,0a.3.3,0,1,0,0,.6c.54,0,1.1,0,1.65,0s1.1,0,1.65,0,1.09,0,1.62,0,1.11,0,1.68,0a.3.3,0,0,0,0-.6l-.22,0-.25,0c-.94,0-1.34-.46-1.34-1.51V42a1.73,1.73,0,0,1,.08-.45,1,1,0,0,0,0-.27.3.3,0,0,0-.3-.3,6,6,0,0,0-1.13.3,12,12,0,0,1-3.29.46.3.3,0,0,0,0,.6c1.1,0,1.61.72,1.61,2.28v9.22C112,54.87,111.62,55.33,110.68,55.33Z" transform="translate(-7.28 -4.52)"/><path class="cls-1" d="M124.15,47.76a9,9,0,0,0,2.42,6.44,6.51,6.51,0,0,0,4.68,1.92h.07c3.6,0,5.42-2.38,5.42-2.85a.47.47,0,0,0-.44-.49c-.19,0-.35.15-.57.36a5,5,0,0,1-3.92,1.33c-2.67,0-4.68-2.88-4.68-6.71,0-.3,0-.54,0-.73a1.34,1.34,0,0,1,0-.21h9.76c.18,0,.3-.19.3-.38,0-3.88-2.68-7-6-7C127.14,39.4,124.15,42.91,124.15,47.76ZM131,40.37c2.28,0,2.53,3.17,2.53,4.54,0,.74-.08.94-.39.94l-5.93.22C127.23,43.65,128.54,40.37,131,40.37Z" transform="translate(-7.28 -4.52)"/><path class="cls-1" d="M153,39.4a4.17,4.17,0,0,0-3.69,2.74V40.82a3.9,3.9,0,0,1,.06-.65,3.18,3.18,0,0,0,0-.4.35.35,0,0,0-.3-.37,4.48,4.48,0,0,0-.86.18,14.07,14.07,0,0,1-3.34.53.31.31,0,0,0-.3.33.31.31,0,0,0,.3.34c1.1,0,1.61.81,1.61,2.55V53.57c0,1.18-.4,1.69-1.34,1.69l-.25,0-.21,0a.34.34,0,0,0,0,.67l1.65,0c.54,0,1.1,0,1.65,0s1.09,0,1.62,0,1.11,0,1.68,0a.31.31,0,0,0,.3-.33.31.31,0,0,0-.3-.34l-.22,0-.25,0c-.94,0-1.34-.51-1.34-1.69v-6c0-.11,0-.24,0-.39A11.9,11.9,0,0,1,150,43c.56-1.47,1.69-2.57,2.64-2.57.62,0,.66.59.71,1.27.06.85.12,1.8,1.33,1.8a1.52,1.52,0,0,0,1.5-1.72C156.16,40.62,155.32,39.4,153,39.4Z" transform="translate(-7.28 -4.52)"/></svg>