<svg id="Calque_1" data-name="Calque 1" xmlns="http://www.w3.org/2000/svg" viewBox="0 0 133.53 193.68"><defs><style>.cls-1{fill:none;}.cls-2{fill:#ededed;}</style></defs><path class="cls-1" d="M11,126.92A55.79,55.79,0,1,0,66.76,71.14,55.78,55.78,0,0,0,11,126.92Z"/><path class="cls-1" d="M66.76,58.55A55.78,55.78,0,0,0,122.55,2.77c0-.93,0-1.85-.07-2.77H11.05C11,.92,11,1.84,11,2.77A55.79,55.79,0,0,0,66.76,58.55Z"/><path class="cls-2" d="M122.55,2.77A55.79,55.79,0,0,1,11,2.77c0-.93,0-1.85.07-2.77H.07C0,.92,0,1.84,0,2.77A66.78,66.78,0,0,0,42.13,64.84a66.77,66.77,0,1,0,49.27,0A66.78,66.78,0,0,0,133.53,2.77c0-.93,0-1.85-.07-2.77h-11C122.52.92,122.55,1.84,122.55,2.77Zm0,124.15A55.79,55.79,0,1,1,66.76,71.14,55.78,55.78,0,0,1,122.55,126.92Z"/></svg>