<svg id="Calque_1" data-name="Calque 1" xmlns="http://www.w3.org/2000/svg" viewBox="0 0 1109 542.74"><defs><style>.cls-1{fill:#ff5f00;}</style></defs><path class="cls-1" d="M837.63.1C706.13.1,631,99.36,553.69,190.77,475.17,95.39,408.11.1,271.37.1,121.49.1,0,121.6,0,271.47S121.49,542.84,271.36,542.84c98.88,0,165.63-55.84,225.25-122.61,19.69-22,38.59-45.26,57.62-68.06,79.24,95,146.59,190.67,283.4,190.67,149.88,0,271.37-121.5,271.37-271.37S987.51.1,837.63.1ZM268.28,492.52c-122.08,0-221.06-99-221.06-221s99-221,221.06-221S513,149.38,513,271.47,390.36,492.52,268.28,492.52Zm578.26,0c-122.09,0-244.68-99-244.68-221s122.59-221,244.68-221,221,99,221,221.05S968.62,492.52,846.54,492.52Z" transform="translate(0 -0.1)"/></svg>
