<svg id="Calque_1" data-name="Calque 1" xmlns="http://www.w3.org/2000/svg" viewBox="0 0 1044.44 541.24"><defs><style>.cls-1{fill:#ff5f00;}</style></defs><path class="cls-1" d="M774.1.38C659.9.38,562.23,71.11,522.5,171.16,482.77,71.11,385.1.38,270.9.38,121.44.38.28,121.54.28,271S121.44,541.62,270.9,541.62c114.2,0,211.87-70.73,251.6-170.78,39.73,100.05,137.4,170.78,251.6,170.78,149.46,0,270.62-121.16,270.62-270.62S923.56.38,774.1.38ZM270.9,497.11C146,497.11,44.79,395.87,44.79,271S146,44.89,270.9,44.89,497,146.12,497,271,395.77,497.11,270.9,497.11Zm503.2,0C649.23,497.11,548,395.87,548,271S649.23,44.89,774.1,44.89,1000.21,146.12,1000.21,271,899,497.11,774.1,497.11Z" transform="translate(-0.28 -0.38)"/></svg>