<svg id="Calque_1" data-name="Calque 1" xmlns="http://www.w3.org/2000/svg" viewBox="0 0 54.39 54.63"><defs><style>.cls-1{fill:#595378;}.cls-2{fill:#fff;}</style></defs><path class="cls-1" d="M54.14,54.18l.25-.24-.15-.15a9.44,9.44,0,0,0,0-2.49,9.74,9.74,0,0,1,0-2.75v-.18a38.49,38.49,0,0,1-.16-6.26c0-1.87.06-3.8,0-5.39v-.07c.07-10.93,0-21.13-.06-32.09.39-1.61.32-2.67-.23-3.33C53,.29,51.51.37,49.61.48a25,25,0,0,1-3.46,0c-2.91-.84-6.64.44-7.71.85l-.16.06-.06.15h0C35.15-.76,28,0,22.22.66c-2,.22-4,.43-5.42.48A108.66,108.66,0,0,0,.67.39H.27v.4C.44,6.5.35,12.79.27,19,.14,28,0,36.5.7,42.63l.15,1.43c-.07.58-.2,1.26-.33,2-.49,2.68-1,5.71.31,7.27a3.15,3.15,0,0,0,2.65.91,83.69,83.69,0,0,1,11.42.11c2.63.14,5.21.28,7.55.28,3.26,0,6.07-.27,8-1.16a.69.69,0,0,0,.7.37h0c3.14,1,7.88.77,12.88.53a81.73,81.73,0,0,1,9.52-.08l.24.18.15-.15h.2Z"/><path class="cls-2" d="M33.6,27.68c1.92-1.63,13.23-8.3,8.93-10.31-3.39-1.53-10.17,5.15-13,6.11C28,21,27.57,13.77,25.56,10.92c-1.85-2.61-4.29-.33-4.61,2.88a27.3,27.3,0,0,0,.71,7c.81,4.34.18,2.61-3.89,1.49-1.12-.31-6.35-1.72-7.27-1.11-4.36,2.89,8.28,8.11,9.77,8.62-1.31,1-11.51,8.86-6.51,10.05,2.9.7,8.4-4.63,10.74-5.41,0,0,.6-.8.78,1,.13,1.37,1,9.24,3.36,9.43s3.47-4.53,2.7-9.5a1.7,1.7,0,0,1,0-1.22c.35-.57,9,3.66,11.17,1.21C43.72,33.84,40.86,30.41,33.6,27.68Z"/></svg>