<svg id="Calque_1" data-name="Calque 1" xmlns="http://www.w3.org/2000/svg" viewBox="0 0 51.95 53.94"><defs><style>.cls-1{fill:#ff4438;}</style></defs><path class="cls-1" d="M37.32,28.36c2.94-2.5,20.26-12.72,13.68-15.8-5.14-2.41-15.58,7.89-20,9.36C28.78,18.08,28.08,7,25,2.69c-2.82-4-6.56-.51-7,4.4-.34,3.38.47,7.6,1.07,10.82,1.25,6.65.28,4-6,2.28-1.72-.47-9.72-2.63-11.13-1.69-6.62,4.39,12.68,12.38,15,13.24-2,1.53-17.64,13.57-10,15.39,4.46,1.06,12.88-7.1,16.47-8.3,0,0,.93-1.22,1.19,1.6.21,2.1,1.62,14.16,5.16,14.45s5.32-7,4.14-14.55a2.76,2.76,0,0,1,0-1.88c.55-.87,13.8,5.62,17.12,1.86C52.82,37.85,48.44,32.54,37.32,28.36Z" transform="translate(-0.54 -0.95)"/></svg>