<svg id="Calque_1" data-name="Calque 1" xmlns="http://www.w3.org/2000/svg" viewBox="0 0 111.3 111.66"><rect x="6.02" y="4.57" width="100.1" height="100.1" fill="#333"/><path d="M112.49,110.81c.13-32.43,0-68-.18-101.43,2-7.67-1.87-9.08-9-8.34-32-.24-66,1.1-100.08,0C1,28.19,3.09,68.57,2.93,94.34c-11.2,29.08,48.22,14.1,62.55,15.9C76.86,113.3,100.39,110.67,112.49,110.81ZM10,44.26c1.44,2.16.45-.66.81-1.23.51-3.33-4.31-4.14-1.45-6.92,1.78-34.66,1-25.46,34.12-26.93C61.31,11,89,8.24,102.52,9.57c1.88.61.82,7.48,1.74,9.38-1.54,23.94,3.49,61.64-1.91,82.86-19.94,3.4-41.92.17-64.91,1-12.57-2.19-29.83,6.6-27-9.7C10.84,84.92,9.67,54,10,44.26Z" transform="translate(-1.53 -0.86)" fill="#fff"/><path d="M44.44,57.4h.14a11.6,11.6,0,0,0,1.26-.11H46l.23,0h.1l.2,0,.42-.09.14,0,.55-.15.25-.07h0l.11,0,.17-.05.66-.22.45-.15.22-.07.34-.12.34-.12.24-.09.1,0,.19-.07.08,0,.19-.06a4.3,4.3,0,0,0,.53-.25,2.77,2.77,0,0,0,.31-.21h0l.18-.16a.87.87,0,0,0,.17-.27s0-.06,0-.09v0a.41.41,0,0,0-.05-.17.34.34,0,0,0-.08-.09.35.35,0,0,0-.13-.08l-.1,0h0l-.24-.13a2.06,2.06,0,0,0-.26-.12h0l-.06,0L51.08,54,50.93,54l-.15-.08-.05,0-.13-.06,0,0a3.07,3.07,0,0,0-.31-.17l-.37-.18-.33-.17-.34-.16-.1-.05-.26-.14-.36-.24a.31.31,0,0,0-.23,0h0c-.21-.19-.44-.37-.63-.53s-.26-.22-.38-.32l0,0a1.85,1.85,0,0,1-.14-.14L47,51.49l0-.06-.14-.18-.09-.11-.06-.07,0,0-.1-.12-.1-.1-.16-.18c-.07-.07-.13-.15-.19-.22s-.18-.23-.27-.33l-.08-.1c-.09-.11-.17-.23-.25-.34l-.28-.36L45,49,44.94,49c-.08-.12-.18-.23-.26-.33a4.37,4.37,0,0,1-.28-.42l-.06-.11a3.87,3.87,0,0,0-.24-.37c-.06-.09-.13-.17-.2-.26l-.14-.18-.35-.45a1.63,1.63,0,0,1-.14-.18.75.75,0,0,0-.07-.12l-.06-.1-.12-.2a1.76,1.76,0,0,0-.14-.23,4.73,4.73,0,0,0-.35-.49l-.15-.18-.13-.17a2.93,2.93,0,0,1-.3-.45c-.1-.18-.19-.37-.25-.51l-.1-.27c0-.06-.05-.11-.07-.16s0-.07,0-.11a2.45,2.45,0,0,1-.12-.31l0-.05a.31.31,0,0,0,0-.08l-.06-.14a1,1,0,0,0-.07-.15.41.41,0,0,1-.05-.09l-.08-.17,0-.07,0-.08c-.07-.17-.12-.34-.17-.49s-.08-.33-.12-.5h0a4.56,4.56,0,0,0-.13-.53c0-.18-.09-.36-.13-.55s-.1-.58-.14-.86a2.34,2.34,0,0,0,0-.26c0-.15,0-.29-.07-.44V38.8c0-.08,0-.16,0-.23a2,2,0,0,1,0-.26c0-.15,0-.3,0-.46a.49.49,0,0,1,0-.12l0-.37v-1c0-.36,0-.68,0-1a8.69,8.69,0,0,1,.07-.94,6.18,6.18,0,0,1,.12-.62,2.56,2.56,0,0,1,0-.27c.06-.31.13-.6.21-.88s.08-.28.11-.42.1-.36.16-.54a2.41,2.41,0,0,1,.13-.41,3.63,3.63,0,0,1,.17-.42l.18-.44.07-.21c0-.07,0-.14.08-.22s.18-.46.28-.68l.07-.17.18-.4v0l.1-.2.12-.2,0,0a3.87,3.87,0,0,1,.24-.37,3.55,3.55,0,0,1,.23-.31l0,0,0,0c.14-.17.28-.35.41-.53l.33-.49,0-.06.17-.26.2-.31a4.5,4.5,0,0,1,.36-.51l.17-.22.3-.37,0,0,0,0c.05-.07.12-.14.18-.21l0,0,.15-.17.23-.29.12-.16.1-.12h0a.76.76,0,0,0,.11-.14l.11-.12.17-.21h0c.09-.12.19-.23.29-.34s.2-.22.3-.32l.3-.28.23-.2.13-.11.36-.31.17-.14.17-.14.31-.24.09-.07.33-.26,0,0,.28-.25c.16-.15.35-.32.55-.48s.45-.3.74-.46l.21-.11.18-.1.41-.2.59-.22.72-.21a.29.29,0,0,0,.22-.28s0,0,0-.07a.31.31,0,0,0-.15-.17.2.2,0,0,0,0-.08.29.29,0,0,0-.17-.13l-.47-.16L51.43,18l-.2-.07a5,5,0,0,0-.52-.14l-.31-.07c-.26-.07-.54-.12-.83-.17h0l-.4-.08-.39-.13-.05,0a2.26,2.26,0,0,0-.39-.15,3.79,3.79,0,0,0-.54-.09l-.2,0-.29,0-.5,0-.48,0-.49,0h0l-.43,0-.52,0h-.27a.27.27,0,0,0-.12,0l-.18,0H43a4.74,4.74,0,0,0-.63,0c-.44,0-.9.12-1.26.18l-.39.06-.23,0-.47.08-.12,0h0l-.57.11a3,3,0,0,0-.32.09l-.24.06-.32.08-.3.07-.11,0-.19.05-.13,0-.13,0-.53.13-.56.16-.55.17c-.21.07-.41.16-.59.24l-.17.06,0,0-.3.12-.18.09-.1,0-.46.23-.17.09-.13.08a2,2,0,0,0-.23.14l-.11.07a.71.71,0,0,1-.14.1l0,0-.16.1-.19.1-.27.15-.35.2-.16.09-.49.27a9.51,9.51,0,0,0-.92.6c-.13.1-.27.19-.39.27l-.18.11-.22.15-.11.07-.33.23-.39.3-.07,0a4,4,0,0,0-.34.27,2.72,2.72,0,0,0-.34.34l-.08.09c-.1.11-.19.22-.3.32s-.24.24-.35.37l-.19.21-.11.13-.06.07,0,.05-.12.13-.16.16-.06.05-.11.11-.16.16a3.56,3.56,0,0,0-.26.31l0,0-.06.07-.28.35-.15.23a1,1,0,0,0-.1.18l0,0-.23.5-.1.22-.13.28-.06.14-.05.12-.12.24a1,1,0,0,1-.07.15l-.09.18-.07.15-.09.17,0,.09c0,.08-.07.15-.1.22l-.21.4-.08.15c0,.1-.1.2-.14.3l-.08.17c-.1.2-.17.41-.25.62l-.13.37-.06.16a.3.3,0,0,0,0,.1h0c0,.07-.05.15-.07.23l0,.09a.83.83,0,0,1,0,.15v0a1.94,1.94,0,0,0-.05.2c0,.17-.07.37-.1.57s0,.27-.06.41a1.1,1.1,0,0,0,0,.18c-.08.47-.19,1-.3,1.37l0,.08c0,.17-.08.34-.11.51s-.06.46-.07.64,0,.41,0,.58,0,.11,0,.17,0,.24,0,.37a2.11,2.11,0,0,0,0,.25q0,.44-.06.87a1.85,1.85,0,0,0,0,.23v0a2.28,2.28,0,0,0,0,.27,3,3,0,0,0,.06.43,1,1,0,0,0,0,.17l.06.42c0,.09,0,.17,0,.26l.06.35c0,.09,0,.18,0,.27l0,.3,0,.28L23,41l.06.27v0h0a2.86,2.86,0,0,0,.07.28c.08.21.16.41.23.56s.09.23.14.37.09.31.12.45a2.56,2.56,0,0,0,0,.27l.06.31c0,.17.07.36.12.54a4.08,4.08,0,0,0,.22.56,2.91,2.91,0,0,0,.26.49l.29.44a.41.41,0,0,1,0,.09l.1.15.17.23.21.28.17.24a.27.27,0,0,0,0,.12.17.17,0,0,0,0,.07l0,.08.09.27a2.3,2.3,0,0,0,.15.32l.09.13h0l.15.18,0,0,.12.14,0,0,.16.17a1.7,1.7,0,0,1,.19.19c.12.12.22.24.31.34l.17.24L27,49l.15.22.13.2.09.14a8.74,8.74,0,0,0,.53.71c.09.13.2.25.3.38s.21.2.31.3l0,0,.31.27.18.15.16.13c.22.18.43.37.63.55l0,0,.26.23,0,0,.26.21c.27.22.51.41.75.57l.34.24c.14.08.27.18.41.27l.67.48.11.08.25.17.38.23.78.42a3.57,3.57,0,0,0,.45.19l.32.13.05,0,.45.19.14.06A5.36,5.36,0,0,1,36,56l.05,0a10.81,10.81,0,0,0,1.59.74l.76.25.06,0,.88.25.08,0a.32.32,0,0,0,.35-.16l.24.06c.21,0,.44.07.7.1l.66.05h.17l.43,0c.41,0,.84,0,1.27,0l.65,0A4.34,4.34,0,0,0,44.44,57.4Z" transform="translate(-1.53 -0.86)" fill="#fff"/><path d="M84,36.22c1.13-1,7.81-4.9,5.27-6.09-2-.93-6,3-7.7,3.61-.87-1.48-1.14-5.74-2.32-7.42s-2.54-.19-2.72,1.7a16.14,16.14,0,0,0,.41,4.17c.48,2.57.11,1.54-2.3.88-.66-.18-3.75-1-4.29-.65-2.55,1.69,4.89,4.77,5.77,5.1-.77.6-6.8,5.24-3.85,5.94,1.72.41,5-2.73,6.35-3.2,0,0,.36-.47.46.62.08.81.63,5.46,2,5.57s2.05-2.68,1.6-5.61c-.09-.4-.08-.62,0-.73.21-.33,5.32,2.17,6.6.72C90,39.88,88.29,37.83,84,36.22Z" transform="translate(-1.53 -0.86)" fill="#fff"/><path d="M22.74,76.74a3.58,3.58,0,0,0-.39.29C22.48,76.92,22.61,76.83,22.74,76.74Z" transform="translate(-1.53 -0.86)" fill="#fff"/><path d="M34.58,86.47C39.3,84.15,40,75.52,46,74.55c16.15,17.45,9.21,9.63,21.71-1,3.67,3.36,4.61,12.14,9.77,12.62v0c4.61-5.75,10.27-11.84,15.34-17-3.52-11.07-12.4,5.45-15.31,9.29C60.59,40.37,65.28,95.58,45.62,65.23c-5.42.21-6.86,8.72-11.38,11.59-2.31-2.41-4.11-4.3-5.57-5.72-.52,2.31-1.09,5-1.52,7.07C29.16,80.83,31.1,85.34,34.58,86.47Z" transform="translate(-1.53 -0.86)" fill="#fff"/><path d="M23.73,76.26l.07,0h0Z" transform="translate(-1.53 -0.86)" fill="#fff"/><path d="M20.77,69.65c-.49.58-1,1.28-1.63,2.1h0A20.32,20.32,0,0,0,20.77,69.65Z" transform="translate(-1.53 -0.86)" fill="#fff"/><path d="M23.73,76.26a3.32,3.32,0,0,0-1,.48A5.79,5.79,0,0,1,23.73,76.26Z" transform="translate(-1.53 -0.86)" fill="#fff"/><path d="M18.62,72.45l.52-.7A4.35,4.35,0,0,0,18.62,72.45Z" transform="translate(-1.53 -0.86)" fill="#fff"/><path d="M22.35,77a.23.23,0,0,0-.07.07A.23.23,0,0,1,22.35,77Z" transform="translate(-1.53 -0.86)" fill="#fff"/><path d="M22.19,77.17l.09-.07a.23.23,0,0,1,.07-.07,3.58,3.58,0,0,1,.39-.29,3.32,3.32,0,0,1,1-.48l.07,0h0c1.28-.3,2.32.57,3.35,1.93.43-2.07,1-4.76,1.52-7.07-4.23-4.11-5.55-4.25-7.9-1.45a20.32,20.32,0,0,1-1.63,2.1h0l-.52.7C16.66,75.66,21.61,77.75,22.19,77.17Z" transform="translate(-1.53 -0.86)" fill="#fff"/></svg>