<svg id="Calque_1" data-name="Calque 1" xmlns="http://www.w3.org/2000/svg" viewBox="0 0 50.66 68.95"><defs><style>.cls-1{fill:#655dc6;}</style></defs><path class="cls-1" d="M38.26,69.21h.25A19.12,19.12,0,0,0,40.64,69h1.12l.71-.16.24-.06.94-.24.42-.13h.08l.19,0,.29-.09,1.13-.38.77-.26.36-.12.58-.19.59-.22.4-.15.17-.06L49,66.8l.14,0,.32-.12a9,9,0,0,0,.9-.41,6.18,6.18,0,0,0,.53-.36h0l.31-.28a1.31,1.31,0,0,0,.28-.45V65h0a.74.74,0,0,0-.08-.29.82.82,0,0,0-.35-.29l-.19-.07h0l-.41-.21a4.43,4.43,0,0,0-.45-.2h-.17l-.24-.12-.25-.11L49,63.55H49l-.21-.11h0a4.74,4.74,0,0,0-.54-.29l-.62-.31L47,62.56l-.57-.28-.18-.09c-.14-.08-.29-.15-.43-.24l-.62-.4a.53.53,0,0,0-.39,0h0c-.36-.32-.75-.63-1.08-.9s-.45-.38-.65-.56V60a1.75,1.75,0,0,1-.24-.23l-.19-.23-.07-.09-.24-.31L42.19,59l-.1-.12v-.06l-.17-.19-.17-.18-.27-.3-.33-.38c-.14-.19-.3-.38-.45-.56L40.55,57l-.42-.56-.47-.63-.33-.44-.09-.12c-.15-.21-.31-.41-.45-.57a7.49,7.49,0,0,1-.48-.72l-.1-.18c-.13-.22-.26-.43-.4-.63l-.34-.44c-.09-.1-.17-.21-.25-.31-.2-.26-.4-.52-.6-.76a1.15,1.15,0,0,1-.22-.32.86.86,0,0,1-.13-.2l-.1-.16c-.08-.12-.14-.24-.21-.36s-.15-.26-.23-.38q-.28-.43-.6-.84l-.25-.3-.24-.29a5.42,5.42,0,0,1-.5-.78c-.17-.3-.32-.62-.43-.86a3.6,3.6,0,0,1-.17-.46c0-.14-.07-.19-.11-.28l-.08-.17-.2-.53v-.22l-.1-.24L32.93,45l-.09-.16c0-.1-.09-.19-.13-.29v-.25c-.12-.29-.21-.59-.29-.84a4.89,4.89,0,0,1-.2-.84h0c-.06-.31-.14-.61-.22-.89s-.16-.63-.22-.94c-.1-.49-.17-1-.24-1.47a1,1,0,0,0-.07-.44l-.12-.76V38a.74.74,0,0,0-.07-.38,1.27,1.27,0,0,1-.08-.44,5.06,5.06,0,0,0-.07-.78V32.25a7.6,7.6,0,0,1,.12-1.6,5.4,5.4,0,0,1,.2-1l.09-.45a15,15,0,0,1,.36-1.5c.07-.24.13-.48.19-.71s.17-.62.26-.93.14-.47.23-.71.19-.5.28-.7.22-.51.32-.76l.12-.35a1.26,1.26,0,0,1,.13-.37c.15-.4.31-.79.47-1.17l.12-.29c.1-.23.21-.45.31-.67v0c.06-.11.11-.23.18-.35l.2-.34V20.2c.12-.2.26-.43.4-.64l.4-.52.05-.07h0c.23-.3.47-.6.69-.91s.38-.56.56-.84l.07-.1c.09-.15.18-.3.28-.44l.34-.53a8.52,8.52,0,0,1,.61-.87l.3-.37.5-.63,0,.08h0c.1-.12.2-.25.31-.37v-.05l.25-.29c.14-.16.27-.33.39-.49l.21-.27c.06-.07.12-.13.17-.2h0l.19-.24.17-.21.3-.35h0c.15-.19.31-.39.48-.58a6.53,6.53,0,0,1,.52-.53l.51-.48.39-.34L43,9.77l.62-.53L43.87,9a1.68,1.68,0,0,1,.29-.24l.53-.42.14-.11c.2-.14.39-.3.58-.45h.06c.19-.15.34-.28.48-.41s.6-.55.94-.82A10.76,10.76,0,0,1,48,5.15L48.35,5l.31-.17c.25-.14.48-.25.7-.35s.65-.25,1-.37.85-.26,1.22-.36A.5.5,0,0,0,52,3.24V3.11a.48.48,0,0,0-.25-.29.31.31,0,0,0-.06-.13.52.52,0,0,0-.3-.23l-.79-.27-.36-.14-.34-.13A7.34,7.34,0,0,0,49,1.68l-.52-.11c-.46-.12-.93-.21-1.41-.3H47a2.65,2.65,0,0,1-.68-.14c-.22-.06-.45-.15-.66-.22h-.09a5.92,5.92,0,0,0-.66-.25A5.91,5.91,0,0,0,43.94.5H43.1L42.26.41h-.82L40.59.35h-.07c-.25,0-.5-.06-.74-.07H38.43a.34.34,0,0,0-.2,0H35.92a5.76,5.76,0,0,0-1.07.07c-.75.08-1.52.21-2.15.32l-.65.1-.41.07L30.8.72h-.21c-.32.05-.65.11-1,.19L29,1.06l-.41.11-.54.13-.51.12-.2.06-.31.08-.22.05-.22,0-.91.22-1,.27c-.26.08-.6.18-.94.3s-.68.26-1,.39L22.5,3h-.07a3.89,3.89,0,0,0-.51.21l-.3.14-.19.1-.78.38L20.37,4l-.22.12-.4.25-.18.12-.24.17,0,.11-.3.17-.32.18-.46.25-.6.34-.27.15-.84.48a14.78,14.78,0,0,0-1.56,1c-.23.17-.47.33-.67.46L14,8l-.38.24-.19.13-.53.4-.67.52-.11.07c-.2.15-.4.3-.59.46a4.46,4.46,0,0,0-.57.58l-.14.15c-.16.19-.33.37-.5.55a5.91,5.91,0,0,0-.6.63l-.33.37-.19.21-.11.12L9,12.47c-.06.07-.12.15-.19.22L8.52,13l-.11.09-.19.18L8,13.51c-.16.17-.3.35-.44.53l0,.06-.1.11c-.16.2-.33.4-.48.61a3.82,3.82,0,0,0-.25.38,1.87,1.87,0,0,0-.17.31h0c-.15.28-.28.58-.4.84s-.11.26-.17.39l-.21.47-.11.24-.09.2-.19.42-.12.24L5,18.62c0,.09-.09.18-.13.26s-.09.2-.14.3l-.07.15-.18.37c-.12.23-.24.45-.35.68L4,20.72c-.09.17-.17.35-.24.52s-.09.19-.13.28c-.16.35-.3.71-.42,1.06s-.15.42-.24.63-.06.18-.1.27l-.06.17h0a2,2,0,0,0-.13.39.38.38,0,0,0,0,.15.36.36,0,0,1-.07.26v.06l-.09.34a8.28,8.28,0,0,1-.18,1l-.09.7v.31c-.13.8-.33,1.62-.5,2.33v.14a6.54,6.54,0,0,0-.18.88c-.07.43-.11.77-.13,1.08s0,.71-.05,1v1.35c0,.48-.08,1-.1,1.47v.94a6.54,6.54,0,0,0,.1.73.63.63,0,0,1,0,.29c0,.1.07.48.1.72l.06.44a4.17,4.17,0,0,0,.1.6c0,.2.05.3.08.45a3,3,0,0,1,0,.52v.48a7.2,7.2,0,0,0,.17,1.08,2.46,2.46,0,0,0,.1.47H2a1.57,1.57,0,0,0,.13.47c.13.36.27.7.39,1s.15.39.23.63.15.5.21.76a3.55,3.55,0,0,0,.09.47l.09.52a7.83,7.83,0,0,0,.22.93,6,6,0,0,0,.37,1,3.85,3.85,0,0,0,.43.83l.5.74c0,.06.07.11.1.16l.15.25q.13.19.3.39l.36.5c.09.13.18.26.29.39a.34.34,0,0,0,0,.2.15.15,0,0,0,0,.13v.14A1.4,1.4,0,0,0,6,51.8a2.31,2.31,0,0,0,.26.55l.14.22h0c.08.1.16.21.25.31l.07.08.21.23H7l.27.28.33.32c.19.2.37.41.52.59s.2.27.29.41l.15.2c.08.12.17.24.25.37s.16.23.23.35.11.16.16.24c.29.43.61.85.89,1.21l.52.63a4.34,4.34,0,0,0,.53.52h.06c.17.16.35.32.53.46L12,59l.27.22c.37.3.74.63,1.07.94l.07.06a4.19,4.19,0,0,0,.45.39l.08.07.45.36c.45.38.86.69,1.27,1l.58.39.69.47c.35.26.73.53,1.15.82l.18.13.44.3c.22.14.43.27.64.38.53.3.94.53,1.33.72.24.12.5.23.76.33l.55.22h.09l.76.33.23.1c.32.14.62.31.92.47H24A18.56,18.56,0,0,0,26.75,68l1.3.43h.1c.49.16,1,.3,1.5.43h.14a.53.53,0,0,0,.59-.26l.42.09c.36.07.75.12,1.19.17l1.12.09h1a19.86,19.86,0,0,1,2.16.08l1.11,0Z" transform="translate(-1.29 -0.26)"/></svg>