<svg xmlns="http://www.w3.org/2000/svg" xmlns:xlink="http://www.w3.org/1999/xlink" width="1080" zoomAndPan="magnify" viewBox="0 0 810 809.999993" height="1080" preserveAspectRatio="xMidYMid meet" version="1.0"><defs><clipPath id="4b07f0a223"><path d="M 135 148 L 676.097656 148 L 676.097656 663.476562 L 135 663.476562 Z M 135 148 " clip-rule="nonzero"/></clipPath><clipPath id="c0eb7f7c77"><path d="M 133.847656 146.726562 L 675 146.726562 L 675 662 L 133.847656 662 Z M 133.847656 146.726562 " clip-rule="nonzero"/></clipPath></defs><g clip-path="url(#4b07f0a223)"><path fill="#000000" d="M 405.699219 148.511719 L 489.246094 317.878906 L 676.144531 345.042969 L 540.867188 476.964844 L 572.902344 663.105469 L 405.699219 575.230469 L 238.390625 663.105469 L 270.316406 476.964844 L 135.144531 345.042969 L 322.042969 317.878906 Z M 405.699219 148.511719 " fill-opacity="1" fill-rule="nonzero"/></g><g clip-path="url(#c0eb7f7c77)"><path fill="#000000" d="M 404.402344 146.890625 L 488.054688 316.253906 L 674.953125 343.417969 L 539.675781 475.339844 L 571.601562 661.480469 L 404.402344 573.605469 L 237.199219 661.480469 L 269.125 475.339844 L 133.847656 343.417969 L 320.746094 316.253906 Z M 404.402344 146.890625 " fill-opacity="1" fill-rule="nonzero"/><path fill="#000000" d="M 404.402344 146.890625 L 488.054688 316.253906 L 674.953125 343.417969 L 539.675781 475.339844 L 571.601562 661.480469 L 404.402344 573.605469 L 237.199219 661.480469 L 269.125 475.339844 L 133.847656 343.417969 L 320.746094 316.253906 Z M 404.402344 146.890625 " fill-opacity="1" fill-rule="nonzero"/><path fill="#000000" d="M 404.402344 146.890625 L 488.054688 316.253906 L 674.953125 343.417969 L 539.675781 475.339844 L 571.601562 661.480469 L 404.402344 573.605469 L 237.199219 661.480469 L 269.125 475.339844 L 133.847656 343.417969 L 320.746094 316.253906 Z M 404.402344 146.890625 " fill-opacity="1" fill-rule="nonzero"/></g></svg>